<?xml version="1.0" encoding="utf-8"?>
<!-- Generator: Adobe Illustrator 24.1.3, SVG Export Plug-In . SVG Version: 6.00 Build 0)  -->
<svg version="1.1" id="圖層_1" xmlns="http://www.w3.org/2000/svg" xmlns:xlink="http://www.w3.org/1999/xlink" x="0px" y="0px"
	 viewBox="0 0 254.3 32.6" style="enable-background:new 0 0 254.3 32.6;" xml:space="preserve">
<style type="text/css">
	.st0{fill:#FFFFFF;}
</style>
<path class="st0" d="M10.2,8.9h1.1c2.6,0,4.8,0,4.3,3.5c-0.5,3.3-2.9,3.3-5.3,3.3H9.1L10.2,8.9z M0.2,30.5h6.7l1.4-9.1h3.8
	c5.9,0,9.6-2.8,10.5-9.3c0.9-6.3-2.5-9-8-9H4.3L0.2,30.5z"/>
<path class="st0" d="M50.6,4.5l-1.7,11.4H49c1.4-1.7,3-2.5,5-2.5c3.7,0,5.1,2.6,4.5,6.5L57,29.3h-5.1l1.2-7.9
	c0.3-1.8,0.3-3.7-1.8-3.7c-2,0-3,1.9-3.2,3.7l-1.2,7.9h-5.1l3.7-24.9h5.1C50.6,4.4,50.6,4.5,50.6,4.5z"/>
<path class="st0" d="M69.2,18.2c2.1,0,3.1,1.6,2.8,3.5c-0.3,1.9-1.7,3.4-3.8,3.4c-2.1,0-3.1-1.5-2.8-3.4
	C65.6,19.8,67.1,18.2,69.2,18.2 M69.9,13.5c-4.7,0-9.2,3-10,8.2s2.9,8.2,7.5,8.2c4.7,0,9.2-3,10-8.2C78.2,16.4,74.5,13.5,69.9,13.5"
	/>
<path class="st0" d="M85.1,15.9L85.1,15.9c1.5-1.7,3.1-2.4,5-2.4c2.1,0,3.8,0.9,4.5,2.9c1.3-1.9,3.4-2.9,5.4-2.9
	c3.7,0,4.6,2.5,4,6.1l-1.5,9.8h-5.1l1.1-7.3c0.2-1.6,0.7-4.2-1.5-4.2c-2.4,0-2.8,2.4-3.1,4.2l-1.1,7.3h-5.1l1.1-7.3
	c0.3-1.7,0.6-4.3-1.6-4.3c-2.3,0-2.7,2.6-2.9,4.3l-1.1,7.3H78L80.3,14h5.1L85.1,15.9z"/>
<path class="st0" d="M111,19.4c0.5-1.6,1.9-2.4,3.4-2.4c1.4,0,2.5,1,2.6,2.4H111z M121.4,22c0.8-5.2-1.6-8.5-6.7-8.5
	c-4.7,0-8.5,3.1-9.3,8.2c-0.8,5.3,2.4,8.2,7.2,8.2c3.3,0,6.8-1.6,8.2-5.3h-5c-0.7,1-1.6,1.4-2.7,1.4c-2.1,0-3-1.2-2.7-3.4h10.8
	L121.4,22z"/>
<path class="st0" d="M39.3,3.2L39.3,3.2c-0.5,0-0.9-0.1-1.4-0.1c-3.4,0-7.2,1.6-10,4.2c-2.7,2.6-4.5,6-5,9.5
	c-0.6,3.9,0.2,7.3,2.5,9.8c2.2,2.5,5.2,3.8,8.7,3.8c0.4,0,0.8,0,1.2-0.1l0,0c1.5-0.2,2.9-0.6,4.6-1.1l1.2-8.1
	c-1.3,1.4-3,2.3-4.8,2.6l0,0c-0.4,0.1-0.8,0.1-1.1,0.1c-4,0-6.2-3-5.6-7.1c0.6-4,3.7-7.2,7.6-7.2c0.4,0,0.8,0,1.2,0.1l0,0
	c1.7,0.3,3.2,1.2,4,2.8l1.2-8.1C42.2,3.8,40.8,3.3,39.3,3.2z"/>
<path class="st0" d="M79.7,4.2c1,0,1.6,1,1.4,1.9c-0.1,0.9-1,2-2,2s-1.6-1.1-1.4-2C77.8,5.1,78.7,4.2,79.7,4.2 M79,9.2
	c1.7,0,3.1-1.4,3.4-3.1C82.6,4.5,81.7,3,80,3s-3.1,1.4-3.4,3.1C76.3,7.8,77.2,9.2,79,9.2"/>
<polygon class="st0" points="87.2,3.1 88,3.1 90.5,7.2 90.5,7.2 91.1,3.2 92.3,3.2 91.4,9.2 90.5,9.2 88.1,5.1 88.1,5.1 87.5,9.1 
	86.3,9.1 "/>
<polygon class="st0" points="97.4,8.1 99,8.1 98.9,9.1 96.1,9.1 97,3.2 98.1,3.2 "/>
<polygon class="st0" points="104.3,9.1 103.1,9.1 104,3.2 105.1,3.2 "/>
<polygon class="st0" points="109.9,3.1 110.7,3.1 113.2,7.2 113.2,7.2 113.8,3.2 114.9,3.2 114,9.2 113.2,9.2 110.7,5.1 110.7,5.1 
	110.1,9.1 109,9.1 "/>
<polygon class="st0" points="120.6,4.2 120.4,5.5 122.3,5.5 122.1,6.5 120.3,6.5 120.1,8.1 122,8.1 121.8,9.1 118.8,9.1 119.6,3.2 
	122.7,3.2 122.5,4.2 "/>
<polygon class="st0" points="150.3,9.1 142.5,9.1 137.8,31.6 131.2,31.6 135.9,9.1 128.1,9.1 129.2,3.6 151.4,3.6 "/>
<path class="st0" d="M169.7,15.3c0,0.3,0,0.7-0.1,1.2c0,0.5-0.1,1-0.2,1.4l-2.8,13.7h-6.2l2.2-10.5c0.2-0.8,0.3-1.5,0.4-2
	c0.1-0.6,0.1-1,0.1-1.5c0-0.8-0.2-1.4-0.6-1.8c-0.4-0.4-1.1-0.6-2.1-0.6c-0.5,0-1,0.1-1.7,0.3c-0.6,0.2-1.3,0.6-2.1,1l-3.1,15h-6.1
	l6.1-29.2h6.1l-2.2,10.5c1.2-0.9,2.4-1.6,3.4-2.1s2.2-0.8,3.4-0.8c1.7,0,3.1,0.5,4,1.4C169.2,12.3,169.7,13.6,169.7,15.3"/>
<path class="st0" d="M182.3,29.4c-0.4,0.3-0.8,0.6-1.4,1c-0.5,0.4-1,0.7-1.5,0.9c-0.6,0.3-1.2,0.5-1.8,0.7s-1.3,0.2-2.3,0.2
	c-1.6,0-2.9-0.5-3.9-1.5s-1.5-2.3-1.5-3.8c0-1.7,0.4-3.1,1.1-4.2c0.7-1.2,1.8-2.1,3.2-2.8c1.3-0.7,2.9-1.1,4.7-1.4s3.8-0.5,5.9-0.6
	c0-0.1,0-0.2,0.1-0.4c0-0.2,0.1-0.4,0.1-0.6c0-0.9-0.4-1.5-1.1-1.9c-0.7-0.4-1.9-0.5-3.3-0.5c-1,0-2.1,0.2-3.3,0.6
	c-1.2,0.4-2.1,0.7-2.7,0.9H174l0.9-5c0.7-0.2,1.8-0.4,3.3-0.7s3-0.4,4.4-0.4c3,0,5.2,0.4,6.6,1.3c1.4,0.9,2.1,2.2,2.1,4
	c0,0.2,0,0.6-0.1,1c0,0.4-0.1,0.8-0.2,1.1l-3,14.3h-6.1L182.3,29.4z M183.9,21.7c-1.1,0.1-2.1,0.2-3.1,0.4c-1,0.1-1.8,0.3-2.4,0.6
	c-0.7,0.3-1.2,0.7-1.6,1.2c-0.4,0.5-0.5,1.2-0.5,2c0,0.7,0.2,1.2,0.7,1.5s1.2,0.4,2.1,0.4c0.6,0,1.2-0.2,1.9-0.5s1.3-0.7,1.9-1.2
	L183.9,21.7z"/>
<path class="st0" d="M202.3,10.5l-4.4,21.1h-6.1l4.4-21.1H202.3z M204.1,2.4L203,7.5h-6.5l1.1-5.1H204.1z"/>
<g>
	<g>
		<path class="st0" d="M225.7,10.6c-0.3-0.3-1-0.9-1.5-1.2c-0.4,0.4-1.1,1-1.5,1.3h-3c1-0.6,2-1.3,2.6-2.1h1.1
			c-0.6-0.6-1.1-1.3-1.5-1.8h-6.1c-0.6,0.6-1.4,1.2-2.1,1.8h1.1c0.4,0.7,1.2,1.4,1.9,2.1h-2.8c-0.4-0.4-0.8-0.9-1.1-1.3
			c-0.6,0.4-1.4,0.9-2.1,1.3h-3.3c2.2-1,4.3-2.4,5.9-3.8h-5l0.2-1.2h6.1c0.4-0.3,0.8-0.8,1-1.1h-5.3l0.2-1.2h6.1
			c0.2-0.2,0.6-0.8,0.7-1h-7.7L210,1h8.2c0.2-0.3,0.3-0.6,0.5-0.9h2.3c-0.1,0.2-0.3,0.7-0.5,0.9h9.4l-0.2,1.2h-9.9
			c-0.1,0.3-0.5,0.8-0.7,1h9.5l-0.2,1.2h-10.2c-0.2,0.3-0.6,0.8-0.9,1.1h12.6l-0.2,1.2h-4.9c1.1,1.3,2.9,2.8,4.6,3.8h-3.7
			L225.7,10.6L225.7,10.6z M211.4,14.6h-3.9c2.2-0.7,4.4-2.2,6.1-3.5h2.8C215,12.3,213.3,13.6,211.4,14.6z M218,14.9
			c-0.4,0.2-0.9,0.4-1.5,0.4H214l-0.6-1.2h2.5c0.3,0,0.6-0.2,0.6-0.5l1.1-6.2h2.2l-1.1,6.5C218.8,14.3,218.5,14.7,218,14.9z
			 M224.3,14.6c-1.6-1-3.1-2.3-4.2-3.5h2.8c1.4,1.2,3.2,2.5,5.1,3.5H224.3z"/>
		<path class="st0" d="M250.7,14.7c-0.4,0.3-1,0.5-1.9,0.5h-16.2c-0.6,0-1.2-0.2-1.5-0.6c-0.3-0.3-0.5-0.7-0.4-1.2l2-11.8
			c0.1-0.5,0.5-0.9,1.1-1.2c0.4-0.2,1-0.4,1.6-0.4h15.9c0.8,0,1.3,0.2,1.7,0.5s0.5,0.8,0.4,1.3l-2,11.6
			C251.3,14,251.1,14.4,250.7,14.7z M251.1,1.9c0-0.2-0.2-0.5-0.5-0.5h-14.9c-0.3,0-0.7,0.2-0.8,0.4l-2,11.7
			c-0.1,0.3,0.3,0.5,0.6,0.5h14.9c0.4,0,0.7-0.2,0.7-0.5L251.1,1.9z M234,12.6l0.2-1.4c2.1-0.2,6-0.9,8.1-1.4l-0.2,1.3
			C240,11.6,236.1,12.4,234,12.6z M241.9,9.2c-0.3,0.3-0.8,0.4-1.4,0.4h-3.8c-0.5,0-0.9-0.1-1.1-0.4c-0.2-0.2-0.4-0.5-0.3-0.8
			l0.3-1.7c0.1-0.3,0.3-0.6,0.7-0.8c0.4-0.2,0.8-0.3,1.3-0.3h3.5c0.6,0,1.1,0.1,1.3,0.4c0.3,0.2,0.4,0.6,0.4,0.9l-0.2,1.3
			C242.3,8.6,242.2,9,241.9,9.2z M246.5,9.7c0.1,0.5,0.3,1.4,0.4,1.8c0.1,0.2,0.4,0.3,0.7,0.3h1.3l-0.6,1.2H247
			c-0.4,0-0.8,0-1.1-0.2c-0.3-0.1-0.6-0.3-0.7-0.6c-0.1-0.2-0.2-0.7-0.3-1c-0.6,0.5-1.8,1.5-2.4,1.9h-2.8c1.8-1.1,3.6-2.7,4.8-3.9
			c-0.2-1.2-0.5-3.4-0.6-4.7h-8.6l0.2-1.2h8.3c-0.1-0.4-0.1-1.2-0.1-1.6h2c0,0.4,0.1,1.2,0.1,1.6h1.2c-0.1-0.4-0.3-1-0.4-1.4h1.9
			c0.1,0.4,0.3,1.1,0.4,1.4h1.2l-0.2,1.2h-4c0,0.8,0.2,2.2,0.3,2.8c0.5-0.5,1.2-1.4,1.6-2h2.1C249.1,6.7,247.7,8.5,246.5,9.7z
			 M240.4,7.1c0-0.2-0.1-0.3-0.4-0.3h-1.9c-0.3,0-0.5,0.1-0.6,0.4l-0.2,1.1c0,0.2,0.2,0.4,0.4,0.4h2c0.2,0,0.4-0.1,0.5-0.3
			L240.4,7.1z"/>
	</g>
</g>
<g>
	<g>
		<path class="st0" d="M206.1,32.7h-2.4c0.8-1.1,1.5-2.3,2-3.4h2.1C207.4,30.4,206.6,32,206.1,32.7z M211.3,28.1
			c-0.4,0.3-1,0.4-1.7,0.4h-2.8c-0.6,0-1.1-0.1-1.3-0.4c-0.3-0.3-0.4-0.7-0.3-1.2l1.4-8c0.1-0.6,0.4-1,0.9-1.2
			c0.4-0.2,0.9-0.3,1.5-0.3h2.6c0.6,0,1.1,0.1,1.4,0.4c0.3,0.3,0.5,0.7,0.4,1.1l-1.4,8.2C211.8,27.6,211.6,27.9,211.3,28.1z
			 M210.2,25.2h-2.7l-0.3,1.8c0,0.2,0.2,0.4,0.5,0.4h1.5c0.4,0,0.6-0.2,0.7-0.4L210.2,25.2z M210.7,21.9H208l-0.4,2.1h2.7
			L210.7,21.9z M211.2,19.2c0-0.2-0.2-0.4-0.6-0.4h-1.5c-0.3,0-0.6,0.2-0.6,0.4l-0.3,1.6h2.7L211.2,19.2z M209.2,32.7
			c-0.3-1.1-0.4-2.2-0.4-3.4h2.1c0,1.2,0.3,2.3,0.6,3.4H209.2z M224.6,29.9l-0.2,1.2c-0.1,0.6-0.4,1-0.9,1.2s-1.1,0.4-1.9,0.4h-2.1
			l-0.4-1.2h2.5c0.3,0,0.7-0.1,0.7-0.4l0.2-1.2H215l-0.5,2.8h-2.1l0.5-2.8h-1.3l0.2-1.1h1.3l0.4-2.5c0.1-0.6,0.4-1.1,0.9-1.4
			c0.4-0.2,1-0.3,1.8-0.3h2.3l0.2-0.9h-5.8l0.2-1.1h3.4l0.2-1h-2.2l0.2-1.1h2.2l0.1-0.8h-3l0.2-1.1h2.9l0.2-1.2h2l-0.2,1.2h2.9
			l0.2-1.2h2l-0.2,1.2h3l-0.2,1.1h-3l-0.1,0.8h2.2l-0.2,1.1h-2.2l-0.2,1h3.5l-0.2,1.1h-5.9l-0.2,0.9h2.6c0.7,0,1.2,0.1,1.6,0.4
			c0.4,0.3,0.5,0.7,0.4,1.3l-0.4,2.5h1.2l-0.2,1.1C225.7,29.9,224.6,29.9,224.6,29.9z M217.9,27.8h-2.6l-0.2,1h2.6L217.9,27.8z
			 M218.3,25.8h-2.1c-0.3,0-0.6,0.2-0.6,0.4l-0.1,0.6h2.6L218.3,25.8z M221.6,21.7h-2.9l-0.2,1h2.9L221.6,21.7z M221.9,19.8H219
			l-0.1,0.8h2.9L221.9,19.8z M222.8,27.8H220l-0.2,0.9h2.8L222.8,27.8z M223.1,26.2c0-0.2-0.2-0.4-0.5-0.4h-2.2l-0.2,0.9h2.8
			L223.1,26.2z"/>
		<path class="st0" d="M234.1,26.8l-1,5.9H231l0.9-5.3c-1,0.3-3.2,0.9-4,1.1l0.2-1.4c0.9-0.2,2.9-0.7,4-1l0.7-4h-1.4
			c-0.2,0.7-0.7,1.8-1,2.5h-2c1-1.9,1.4-3.8,1.8-5.9h1.9c-0.1,0.7-0.3,1.5-0.5,2.2h1.3l0.6-3.4h2.1l-0.6,3.4h1.9l-0.2,1.2h-1.9
			l-0.6,3.4c0.5-0.1,1.5-0.4,2-0.6l-0.2,1.3C235.6,26.3,234.7,26.6,234.1,26.8z M247.5,32.4c-0.4,0.2-0.9,0.3-1.4,0.3h-3.5l-0.6-1.2
			h3.5c0.3,0,0.6-0.2,0.6-0.4l1.7-9.8c0-0.2-0.2-0.3-0.5-0.3H247c-1.1,3.2-3.3,7.9-8.2,11.3H236c4.9-3,7.6-7.4,8.9-11.3h-1.4
			c-1.4,2.8-3.1,5.5-5.7,7.9h-2.6c2.9-2.3,4.9-5.1,6.1-7.9h-1c-0.8,1-1.8,2.2-2.5,2.9h-2.4c2.2-1.9,3.7-4.2,4.8-6.5h2.2
			c-0.3,0.7-1,1.9-1.3,2.4h7c0.7,0,1.2,0.1,1.5,0.4c0.4,0.3,0.5,0.7,0.4,1.2l-1.7,9.9C248.3,31.8,248,32.1,247.5,32.4z"/>
	</g>
</g>
</svg>
