<svg xmlns="http://www.w3.org/2000/svg" viewBox="0 0 436.29 195.89"><defs><style>.cls-1{fill:#27003c;}.cls-2,.cls-3{fill:#fff;}.cls-3{stroke:#ffb1d5;stroke-miterlimit:10;stroke-width:3.69px;}.cls-4{fill:#c11f27;}.cls-5{fill:#fbcea8;}.cls-6{fill:#d92027;}.cls-7{fill:#2e3090;}.cls-8{fill:#221e1f;}.cls-9{fill:#113dff;}</style></defs><g id="圖層_2" data-name="圖層 2"><g id="圖層_1-2" data-name="圖層 1"><ellipse class="cls-1" cx="83.09" cy="159.73" rx="74.5" ry="16.03"/><circle class="cls-2" cx="83.09" cy="83.09" r="83.09"/><ellipse class="cls-1" cx="353.19" cy="159.73" rx="74.5" ry="16.03"/><circle class="cls-2" cx="353.19" cy="83.09" r="83.09"/><ellipse class="cls-1" cx="218.14" cy="178.88" rx="79.03" ry="17"/><circle class="cls-3" cx="218.14" cy="97.58" r="88.16"/></g><g id="圖層_2-2" data-name="圖層 2"><path class="cls-4" d="M180.94,90.87l-.07,0a5.29,5.29,0,0,0-1.38-.28h-.65a5.13,5.13,0,0,0-4.74,4.07c0,.17-.06.35-.08.52a2.73,2.73,0,0,1-.14.51,13.14,13.14,0,0,1-7.82,0,4.33,4.33,0,0,1-.24-1.4V81.55a4,4,0,0,1,.15-1.1,13.25,13.25,0,0,1,8,0c0,.07,0,.13,0,.2s0,.34.08.51a5.13,5.13,0,0,0,4.74,4.08h.65a5.32,5.32,0,0,0,1.33-.26l.12,0a.07.07,0,0,0,0-.06.06.06,0,0,0,0-.06h0a1.83,1.83,0,0,1-1.17-1.67h0a5.74,5.74,0,0,0-1.3-3.65,4,4,0,0,0-.35-.37l0-.06-.19-.16a6.48,6.48,0,0,0-1.38-1l-.08,0a5.24,5.24,0,0,0-.64-.29,13.16,13.16,0,0,0-3.52-.87h0a16.81,16.81,0,0,0-2.26-.17h0a17,17,0,0,0-4.36.58l-.27.08-.45.13h0a6.64,6.64,0,0,0-2.76,1.56,1.45,1.45,0,0,0-.18.16l0,.06c-.12.12-.23.24-.34.37a5.7,5.7,0,0,0-1.31,3.65v2h0v5.55h0v2a1.48,1.48,0,0,0,0,.21,5.63,5.63,0,0,0,1.3,3.44l.34.38,0,0,.18.17a6.85,6.85,0,0,0,2.76,1.55h0l.45.14.27.07a16.56,16.56,0,0,0,4.36.58h0a16.81,16.81,0,0,0,2.26-.17h0a13.84,13.84,0,0,0,3.52-.86l.64-.3.08,0a7.22,7.22,0,0,0,1.38-1l.19-.17,0,0c.13-.13.24-.25.35-.38a5.78,5.78,0,0,0,1.3-3.42v-.23h0A1.83,1.83,0,0,1,180.9,91h0a.06.06,0,0,0,0-.06.07.07,0,0,0,0-.06M166.11,80a4.07,4.07,0,0,1,.8-1.33,3.9,3.9,0,0,1,2.92-1.49h.28A3.94,3.94,0,0,1,173,78.69a4.71,4.71,0,0,1,.8,1.33.41.41,0,0,0,0,.08,13.37,13.37,0,0,0-7.79,0,.11.11,0,0,1,0-.08M173,97.12a3.94,3.94,0,0,1-2.93,1.49h-.28a4,4,0,0,1-2.92-1.48,4.11,4.11,0,0,1-.7-1.1,13.6,13.6,0,0,0,3.78.54,13.13,13.13,0,0,0,3.75-.54,4.61,4.61,0,0,1-.7,1.09"/><path class="cls-2" d="M173.87,80.1a.41.41,0,0,1,0-.08,4.71,4.71,0,0,0-.8-1.33,3.94,3.94,0,0,0-2.93-1.49h-.28a3.9,3.9,0,0,0-2.92,1.49,4.07,4.07,0,0,0-.8,1.33.11.11,0,0,0,0,.08,13.37,13.37,0,0,1,7.79,0"/><path class="cls-2" d="M166.21,96a4.11,4.11,0,0,0,.7,1.1,4,4,0,0,0,2.92,1.48h.28A3.94,3.94,0,0,0,173,97.12a4.61,4.61,0,0,0,.7-1.09,13.13,13.13,0,0,1-3.75.54,13.6,13.6,0,0,1-3.78-.54"/><path class="cls-4" d="M203.58,85.13v-2a5.74,5.74,0,0,0-1.31-3.65c-.11-.13-.22-.25-.34-.37a.12.12,0,0,0-.05-.05l-.18-.17a6.64,6.64,0,0,0-2.76-1.56h0l-.46-.13-.27-.08a16.91,16.91,0,0,0-4.35-.58h-.1a16.92,16.92,0,0,0-4.36.58l-.27.08-.46.13h0a6.73,6.73,0,0,0-2.75,1.56,1,1,0,0,0-.18.17s0,0-.05.05a3.92,3.92,0,0,0-.34.37A5.74,5.74,0,0,0,184,83.14v2h0v5.55h0v2a1.48,1.48,0,0,0,0,.21,5.63,5.63,0,0,0,1.3,3.44,3.92,3.92,0,0,0,.34.37l.05.06.18.17a6.82,6.82,0,0,0,2.75,1.55h0l.46.14.27.07a16.5,16.5,0,0,0,4.36.58h.1a16.48,16.48,0,0,0,4.35-.58l.27-.07.46-.14h0a6.73,6.73,0,0,0,2.76-1.55l.18-.17s0,0,.05-.06.23-.24.34-.37a5.72,5.72,0,0,0,1.3-3.42,1.77,1.77,0,0,0,0-.23v-2h0V85.13ZM189.93,80a4.52,4.52,0,0,1,.81-1.33,3.89,3.89,0,0,1,2.92-1.49h.3a3.9,3.9,0,0,1,2.92,1.49,4.29,4.29,0,0,1,.8,1.33.13.13,0,0,1,0,.08,13.46,13.46,0,0,0-3.91-.58,13.32,13.32,0,0,0-3.89.58s0,0,0-.08m6.95,17.1A3.87,3.87,0,0,1,194,98.61h-.3a3.85,3.85,0,0,1-2.92-1.49A4.18,4.18,0,0,1,190,96a13.72,13.72,0,0,0,3.79.54,13.51,13.51,0,0,0,3.76-.54,3.91,3.91,0,0,1-.7,1.09m1.09-14V94.26a4.39,4.39,0,0,1-.24,1.41,13.18,13.18,0,0,1-3.91.59,13,13,0,0,1-3.93-.6,4.08,4.08,0,0,1-.24-1.4V81.55a4.42,4.42,0,0,1,.14-1.1,13.18,13.18,0,0,1,4-.62,12.86,12.86,0,0,1,4,.63,4,4,0,0,1,.15,1.09Z"/><path class="cls-2" d="M197.71,80.1a.13.13,0,0,0,0-.08,4.29,4.29,0,0,0-.8-1.33A3.87,3.87,0,0,0,194,77.2h-.3a3.85,3.85,0,0,0-2.92,1.49,4.52,4.52,0,0,0-.81,1.33s0,0,0,.08a13.32,13.32,0,0,1,3.89-.58,13.46,13.46,0,0,1,3.91.58"/><path class="cls-2" d="M190,96a4.18,4.18,0,0,0,.71,1.09,3.85,3.85,0,0,0,2.92,1.49h.3A4.41,4.41,0,0,0,197.58,96a13.51,13.51,0,0,1-3.76.54A13.72,13.72,0,0,1,190,96"/><path class="cls-4" d="M230.29,77h0a6.29,6.29,0,0,0-.74-.11h0a10.89,10.89,0,0,0-1.41-.09,12.32,12.32,0,0,0-1.5.1l-.22,0-.18,0-.14,0a5.16,5.16,0,0,0-.77.21,5.22,5.22,0,0,0-2.13,1.19.8.8,0,0,0-.13.13.08.08,0,0,0,0,0,3.45,3.45,0,0,0-.26.28,4.38,4.38,0,0,0-1,2.49,2.17,2.17,0,0,0,0,.26v1.71h0v10.7l-5.35-16.83a.05.05,0,0,1-.05,0h-.13l-.12,0,5.65,17.76v.68a3.29,3.29,0,0,1-2.34,3.14l-.39.09v.06l-.27.09h0a6,6,0,0,0,.74.11h0a13,13,0,0,0,1.41.08,12.33,12.33,0,0,0,1.5-.09l.22,0,.17,0,.15,0a6.08,6.08,0,0,0,.76-.22,5,5,0,0,0,2.13-1.19l.14-.12,0,0c.09-.09.17-.19.25-.28a4.32,4.32,0,0,0,1-2.49c0-.09,0-.18,0-.26V92.72h0V80.33a3.27,3.27,0,0,1,2.33-3.13,3,3,0,0,1,.52-.11h.13a.06.06,0,0,0,.06-.06.07.07,0,0,0,0-.06"/><path class="cls-5" d="M213.34,80.4v.75L219,98.85l.39-.09a3.29,3.29,0,0,0,2.34-3.14v-.68l-5.65-17.76a2.57,2.57,0,0,0-.4.08,3.29,3.29,0,0,0-2.33,3.14"/><path class="cls-6" d="M219,98.85l-.12,0h-.13a.05.05,0,0,0-.05,0,0,0,0,0,0,0,0,.09.09,0,0,0,0,0h0l.28-.09Z"/><path class="cls-4" d="M218.74,98.88h.13l.12,0-5.65-17.7V80.4a3.29,3.29,0,0,1,2.33-3.14,2.57,2.57,0,0,1,.4-.08v0l.29-.09,0,.06s0,0,0,0,0,0,0-.06h0a5.84,5.84,0,0,0-.73-.11h0a13.18,13.18,0,0,0-1.41-.09,12.32,12.32,0,0,0-1.5.1l-.22,0-.18,0-.14,0a4.87,4.87,0,0,0-.77.22,5,5,0,0,0-2.13,1.19l-.14.12,0,0-.26.28a4.31,4.31,0,0,0-1,2.49,2.35,2.35,0,0,0,0,.26v14.1a3.26,3.26,0,0,1-2.33,3.13,3.1,3.1,0,0,1-.51.11h-.13a.06.06,0,0,0-.06.06.07.07,0,0,0,0,.06h0a6,6,0,0,0,.74.11h0a10.85,10.85,0,0,0,1.4.09,12.62,12.62,0,0,0,1.51-.1l.22,0a.51.51,0,0,0,.17,0l.14,0a4.85,4.85,0,0,0,.77-.21,5.09,5.09,0,0,0,2.13-1.19l.14-.13,0,0a3.33,3.33,0,0,0,.25-.28,4.29,4.29,0,0,0,1-2.49c0-.08,0-.17,0-.26V92.78h0V82.15l5.35,16.76a.05.05,0,0,1,.05,0"/><path class="cls-7" d="M216.06,77.14v0l.12,0h.13a.05.05,0,0,0,.05,0l0-.06Z"/><path class="cls-8" d="M252.67,124.13h-.13A3,3,0,0,1,252,124a3.28,3.28,0,0,1-2.33-3.13v-1.54h0V106.45h0a4.32,4.32,0,0,0-1-2.49,3.33,3.33,0,0,0-.25-.28l0,0-.14-.13a5.34,5.34,0,0,0-.93-.69h0a5.2,5.2,0,0,0-1-.43,16.81,16.81,0,0,0-4.71-.8l-1,0c-.39,0-.77,0-1.15,0h0l-.13,0a17.25,17.25,0,0,0-1.93.23,16.09,16.09,0,0,0-1.75.31h0a3.24,3.24,0,0,0-.53.16,5.07,5.07,0,0,0-2.13,1.18l-.14.13,0,0a3.33,3.33,0,0,0-.25.28,4.32,4.32,0,0,0-1,2.49c0,.09,0,.18,0,.26v1.71h0v12.39a3.28,3.28,0,0,1-2.33,3.13,3,3,0,0,1-.52.11h-.13a.06.06,0,0,0-.06.06.07.07,0,0,0,0,.06h0a6.29,6.29,0,0,0,.74.11h0a10.89,10.89,0,0,0,1.41.09,12.32,12.32,0,0,0,1.5-.1l.22,0a.57.57,0,0,0,.18,0l.14,0a5.16,5.16,0,0,0,.77-.21,5.22,5.22,0,0,0,2.13-1.19,1.59,1.59,0,0,0,.13-.13.08.08,0,0,0,0,0,3.45,3.45,0,0,0,.26-.28,4.35,4.35,0,0,0,1-2.49,2.26,2.26,0,0,0,0-.26V117.9h0V114h7v4.64h0v1.07a2.17,2.17,0,0,0,0,.26,4.35,4.35,0,0,0,1,2.49,3.45,3.45,0,0,0,.26.28.08.08,0,0,0,0,0,1.59,1.59,0,0,0,.13.13,5.2,5.2,0,0,0,2.13,1.18,4.22,4.22,0,0,0,.77.22l.14,0a.57.57,0,0,0,.18,0l.22,0a12.32,12.32,0,0,0,1.5.1,10.89,10.89,0,0,0,1.41-.09h0a6.29,6.29,0,0,0,.74-.11h0a.07.07,0,0,0,0-.06.06.06,0,0,0-.06-.06m-15.44-19.37a3.07,3.07,0,0,1,.16-.46c0-.09.08-.19.13-.28a3.35,3.35,0,0,1,.6-.8l.2-.16a4.25,4.25,0,0,1,.88-.5,4.46,4.46,0,0,1,1.28-.23h.32a4,4,0,0,1,1.34.26,3.33,3.33,0,0,1,.78.44,3,3,0,0,1,.76.91l.2.36c0,.09.07.18.09.27a2.16,2.16,0,0,1,.1.44,13.27,13.27,0,0,0-6.89,0,2,2,0,0,1,0-.24m6.88,1.08v7.09h-7v-7.61a13,13,0,0,1,3.48-.47,12.78,12.78,0,0,1,3.49.48v.51Z"/><path class="cls-5" d="M244.07,105a2.16,2.16,0,0,0-.1-.44c0-.09-.06-.18-.09-.27l-.2-.36a3,3,0,0,0-.76-.91,3.33,3.33,0,0,0-.78-.44,4,4,0,0,0-1.34-.26h-.32a4.46,4.46,0,0,0-1.28.23,4,4,0,0,0-.88.5l-.2.16a3.16,3.16,0,0,0-.6.8c-.05.09-.09.19-.13.28a3.07,3.07,0,0,0-.16.46,2,2,0,0,0,0,.24,13.27,13.27,0,0,1,6.89,0"/><path class="cls-8" d="M228.81,124.13h-.14a3.1,3.1,0,0,1-.51-.11,3.27,3.27,0,0,1-2.33-3.13v-1.54h0v-1.4c0-.09,0-.17,0-.26a4.36,4.36,0,0,0-1-2.49,3.45,3.45,0,0,0-.26-.28l0,0-.14-.13a5.07,5.07,0,0,0-2.13-1.18l-.45-.15a3.88,3.88,0,0,0,.45-.14,5.07,5.07,0,0,0,2.13-1.18l.14-.13,0,0a3.45,3.45,0,0,0,.26-.28,4.39,4.39,0,0,0,1-2.49c0-.09,0-.17,0-.26v-2.18c0-.08,0-.17,0-.26a4.39,4.39,0,0,0-1-2.49,3.45,3.45,0,0,0-.26-.28l0,0-.14-.13a5.42,5.42,0,0,0-.94-.69h0a4.64,4.64,0,0,0-1-.43,16.86,16.86,0,0,0-4.71-.8l-1,0c-.39,0-.77,0-1.15,0h0l-.12,0a17.25,17.25,0,0,0-1.93.23,16.09,16.09,0,0,0-1.75.31h0a3.24,3.24,0,0,0-.53.16,5.2,5.2,0,0,0-2.13,1.18,1.59,1.59,0,0,0-.13.13.08.08,0,0,0,0,0,3.45,3.45,0,0,0-.26.28,4.38,4.38,0,0,0-1,2.49,2.35,2.35,0,0,0,0,.26v14.1a3.28,3.28,0,0,1-2.34,3.13,2.71,2.71,0,0,1-.51.11h-.13a.06.06,0,0,0-.06.06.07.07,0,0,0,0,.06h0a6,6,0,0,0,.74.11h0a10.89,10.89,0,0,0,1.41.09,12.32,12.32,0,0,0,1.5-.1l.22,0a.57.57,0,0,0,.18,0l.14,0a4.73,4.73,0,0,0,.76-.21,5.19,5.19,0,0,0,2.14-1.19l.13-.13a.08.08,0,0,0,0,0,3.45,3.45,0,0,0,.26-.28,4.35,4.35,0,0,0,1-2.49c0-.09,0-.17,0-.26V117.9h0V114h4.91a2.07,2.07,0,0,1,2.07,2.07s0,.31,0,.42,0,.13,0,.19v1.64h0v1.4a2.17,2.17,0,0,0,0,.26,4.28,4.28,0,0,0,1,2.49,3.45,3.45,0,0,0,.26.28l0,0,.14.13a5,5,0,0,0,2.13,1.18,4,4,0,0,0,.77.22l.14,0,.18,0,.22,0a12.32,12.32,0,0,0,1.5.1,11,11,0,0,0,1.41-.09h0a5.84,5.84,0,0,0,.73-.11h0a.07.07,0,0,0,0-.06.06.06,0,0,0-.05-.06m-15.44-19.37a3.07,3.07,0,0,1,.16-.46c0-.09.08-.19.13-.28a3.35,3.35,0,0,1,.6-.8,1.4,1.4,0,0,1,.2-.16,4.18,4.18,0,0,1,.87-.5,4.53,4.53,0,0,1,1.28-.23h.32a4,4,0,0,1,1.35.26,3.33,3.33,0,0,1,.78.44,3.18,3.18,0,0,1,.76.91l.2.36.09.27a2.22,2.22,0,0,1,.09.37,13.16,13.16,0,0,0-3.2-.39,13.44,13.44,0,0,0-3.7.52,2.82,2.82,0,0,1,.07-.31m6.88,6.11a2.07,2.07,0,0,1-2.07,2.06h-4.91v-7.42a.49.49,0,0,1,0-.12,13.18,13.18,0,0,1,3.72-.54,13,13,0,0,1,3.24.41,2.09,2.09,0,0,1,0,.25v4.58s0,.26,0,.33,0,.4,0,.45"/><path class="cls-5" d="M220.2,104.94a2.22,2.22,0,0,0-.09-.37l-.09-.27-.2-.36a3.18,3.18,0,0,0-.76-.91,3.33,3.33,0,0,0-.78-.44,4,4,0,0,0-1.35-.26h-.32a4.53,4.53,0,0,0-1.28.23,4.18,4.18,0,0,0-.87.5,1.4,1.4,0,0,0-.2.16,3.35,3.35,0,0,0-.6.8c0,.09-.09.19-.13.28a3.07,3.07,0,0,0-.16.46,2.82,2.82,0,0,0-.07.31,13.44,13.44,0,0,1,3.7-.52,13.16,13.16,0,0,1,3.2.39"/><path class="cls-8" d="M263.3,102h-1.89a9.71,9.71,0,0,0-4.18.94,5.13,5.13,0,0,0-1.57,1l-.14.13,0,0a3.33,3.33,0,0,0-.25.28,4.29,4.29,0,0,0-1,2.49c0,.09,0,.17,0,.26v1.7h0v12A3.26,3.26,0,0,1,251.9,124a2.71,2.71,0,0,1-.51.11h-.13s0,0,0,.07a.05.05,0,0,0,0,0h0a6.29,6.29,0,0,0,.74.11h0a10.89,10.89,0,0,0,1.41.09,10.6,10.6,0,0,0,1.5-.1,1.66,1.66,0,0,0,.22,0l.18,0,.14,0a5.16,5.16,0,0,0,.77-.21,5.22,5.22,0,0,0,2.13-1.19.8.8,0,0,0,.13-.13.08.08,0,0,0,0,0,3.45,3.45,0,0,0,.26-.28,4.28,4.28,0,0,0,1-2.49,2.17,2.17,0,0,0,0-.26V118h0V114h6.48a.51.51,0,0,0-.08-1h-6.4v-6.67h7.05a4.2,4.2,0,0,0,4.19-4.2V102Zm3.57,4h-7.05v-.51a3.16,3.16,0,0,1,.09-.76c0-.16.16-.46.16-.46s.08-.19.13-.28a3,3,0,0,1,.49-.67l.11-.13.2-.16a3.61,3.61,0,0,1,.88-.49,4.14,4.14,0,0,1,1.27-.24h7.58a3.86,3.86,0,0,1-3.86,3.7"/><path class="cls-5" d="M263.3,102.3h-.15a4.14,4.14,0,0,0-1.27.24,3.61,3.61,0,0,0-.88.49l-.2.16-.11.13a3,3,0,0,0-.49.67c-.05.09-.09.19-.13.28s-.12.3-.16.46a3.16,3.16,0,0,0-.09.76V106h7.05a3.86,3.86,0,0,0,3.86-3.7H263.3Z"/><path class="cls-8" d="M287.12,102H276.44a4.2,4.2,0,0,0-4.19,4.19v.17h5.88a4.51,4.51,0,0,0-.07.53c0,.09,0,.17,0,.26v1.7h0v12a3.27,3.27,0,0,1-2.33,3.13,3,3,0,0,1-.52.11h-.13a.07.07,0,0,0-.06.07s0,0,.05,0h0a5.84,5.84,0,0,0,.73.11h0a10.89,10.89,0,0,0,1.41.09,10.6,10.6,0,0,0,1.5-.1,1.66,1.66,0,0,0,.22,0l.18,0,.14,0a5.16,5.16,0,0,0,.77-.21,5.22,5.22,0,0,0,2.13-1.19l.14-.13,0,0a3.45,3.45,0,0,0,.26-.28,4.28,4.28,0,0,0,1-2.49,2.17,2.17,0,0,0,0-.26V118h0V106.34h2.81a4.21,4.21,0,0,0,4.2-4.2V102Zm-6.08,1a5.13,5.13,0,0,0-1.57,1l-.14.13,0,0a3.33,3.33,0,0,0-.25.28,4.22,4.22,0,0,0-.84,1.63h-5.62a3.87,3.87,0,0,1,3.86-3.7h6.31a8.93,8.93,0,0,0-1.71.62m5.4,3.08h-2.81v-.51a3.16,3.16,0,0,1,.09-.76,3.07,3.07,0,0,1,.16-.46c0-.09.08-.19.13-.28a3,3,0,0,1,.49-.67l.11-.13.2-.16a3.61,3.61,0,0,1,.88-.49,4.14,4.14,0,0,1,1.27-.24h3.35a3.88,3.88,0,0,1-3.87,3.7"/><path class="cls-5" d="M285.69,102.55a3.61,3.61,0,0,0-.88.49l-.2.16-.11.13a3,3,0,0,0-.49.67c-.05.09-.09.19-.13.28a3.07,3.07,0,0,0-.16.46,3.16,3.16,0,0,0-.09.76V106h2.81a3.88,3.88,0,0,0,3.87-3.7H287a4.14,4.14,0,0,0-1.27.24"/><path class="cls-5" d="M272.58,106h5.62a4.22,4.22,0,0,1,.84-1.63,3.33,3.33,0,0,1,.25-.28s0,0,0,0l.14-.13a5.13,5.13,0,0,1,1.57-1,8.93,8.93,0,0,1,1.71-.62h-6.31a3.87,3.87,0,0,0-3.86,3.7"/><path class="cls-8" d="M204.77,116.06l-.06,0a5.28,5.28,0,0,0-1.39-.28h-.64a5.12,5.12,0,0,0-4.74,4.07,4.67,4.67,0,0,0-.08.52,3.8,3.8,0,0,1-.15.51,13.14,13.14,0,0,1-7.82,0,4.33,4.33,0,0,1-.23-1.4V106.74a4.42,4.42,0,0,1,.14-1.1,13,13,0,0,1,8,0c0,.07,0,.13.05.2a4.5,4.5,0,0,0,.08.51,5.12,5.12,0,0,0,4.74,4.08h.64a5.32,5.32,0,0,0,1.33-.26l.12,0a.05.05,0,0,0,0-.06.07.07,0,0,0,0-.06h0a1.82,1.82,0,0,1-1.16-1.67h0a5.7,5.7,0,0,0-1.31-3.65c-.11-.13-.22-.25-.34-.37l0-.06-.18-.17a6.87,6.87,0,0,0-1.39-1l-.07,0a5.37,5.37,0,0,0-.65-.29,13.16,13.16,0,0,0-3.52-.87h0a16.81,16.81,0,0,0-2.26-.17h0a16.5,16.5,0,0,0-4.36.58l-.27.08-.46.13h0a6.86,6.86,0,0,0-2.76,1.55l-.18.17-.05.06c-.12.12-.23.24-.34.37a5.7,5.7,0,0,0-1.31,3.65v2h0v5.55h0v2a1.48,1.48,0,0,0,0,.21,5.69,5.69,0,0,0,1.3,3.44c.11.13.22.25.34.37l.05.06.18.17a7,7,0,0,0,2.76,1.55h0l.46.13.27.08a16.5,16.5,0,0,0,4.36.58h0a16.81,16.81,0,0,0,2.26-.17h0a13.84,13.84,0,0,0,3.52-.86l.65-.3.07,0a7.29,7.29,0,0,0,1.39-1l.18-.17,0-.06c.12-.12.23-.24.34-.37a5.72,5.72,0,0,0,1.3-3.42c0-.08,0-.16,0-.23h0a1.82,1.82,0,0,1,1.16-1.67h0a.07.07,0,0,0,0-.06.05.05,0,0,0,0-.06m-14.83-10.85a4.1,4.1,0,0,1,.81-1.33,3.84,3.84,0,0,1,2.92-1.49H194a3.89,3.89,0,0,1,2.92,1.49,4.49,4.49,0,0,1,.8,1.33l0,.08a13.37,13.37,0,0,0-7.79,0l0-.08m6.93,17.1A3.92,3.92,0,0,1,194,123.8h-.28a3.9,3.9,0,0,1-2.92-1.49,4.07,4.07,0,0,1-.71-1.1,13.29,13.29,0,0,0,3.78.55,13.13,13.13,0,0,0,3.75-.54,4.61,4.61,0,0,1-.7,1.09"/><path class="cls-5" d="M173.87,80.1a.32.32,0,0,1,0-.09,4.66,4.66,0,0,0-.8-1.32,3.91,3.91,0,0,0-2.93-1.49h-.28a3.87,3.87,0,0,0-2.92,1.49,4.13,4.13,0,0,0-.8,1.32.16.16,0,0,0,0,.09,13.37,13.37,0,0,1,7.79,0"/><path class="cls-5" d="M166.21,96a3.82,3.82,0,0,0,.7,1.1,3.89,3.89,0,0,0,2.92,1.48h.28A3.9,3.9,0,0,0,173,97.12a4.61,4.61,0,0,0,.7-1.09,13.49,13.49,0,0,1-3.75.54,13.24,13.24,0,0,1-3.78-.55"/><path class="cls-5" d="M197.7,105.29l0-.09a4.44,4.44,0,0,0-.8-1.32,3.89,3.89,0,0,0-2.92-1.49h-.28a3.86,3.86,0,0,0-2.92,1.48,4.32,4.32,0,0,0-.81,1.33l0,.09a13.37,13.37,0,0,1,7.79,0"/><path class="cls-5" d="M190,121.21a4.07,4.07,0,0,0,.71,1.1,3.86,3.86,0,0,0,2.92,1.48H194a3.88,3.88,0,0,0,2.92-1.48,4.61,4.61,0,0,0,.7-1.09,13.49,13.49,0,0,1-3.75.54,13.29,13.29,0,0,1-3.78-.55"/><path class="cls-5" d="M197.71,80.1a.13.13,0,0,0,0-.08,4.29,4.29,0,0,0-.8-1.33A3.87,3.87,0,0,0,194,77.2h-.3a3.85,3.85,0,0,0-2.92,1.49,4.52,4.52,0,0,0-.81,1.33s0,0,0,.08a13.32,13.32,0,0,1,3.89-.58,13.46,13.46,0,0,1,3.91.58"/><path class="cls-5" d="M190,96a4.18,4.18,0,0,0,.71,1.09,3.85,3.85,0,0,0,2.92,1.49h.3A4.41,4.41,0,0,0,197.58,96a13.51,13.51,0,0,1-3.76.54A13.72,13.72,0,0,1,190,96"/><path class="cls-4" d="M158.55,76.8h0a3.67,3.67,0,0,0-.17-1,4.28,4.28,0,0,1-2.43,1h-9.5a3.23,3.23,0,0,0-2.13,1.08,3.45,3.45,0,0,0-.92,2.35v.15a2.17,2.17,0,0,0,.17.86,2.24,2.24,0,0,1,.7-.54l.07,0,.06,0a3.84,3.84,0,0,1,1.55-.26h1.91a4.45,4.45,0,0,0-.15.9,2.26,2.26,0,0,0,0,.26v1.7h0v.49h0V95.68h-2.55A3.25,3.25,0,0,0,143,96.8a3.43,3.43,0,0,0-.92,2.34v.15a2.25,2.25,0,0,0,.17.87,3,3,0,0,1,2.28-.85s6.7,0,8.46,0c.28,0,.54,0,.79,0h.13a3.23,3.23,0,0,0,2.84-1.7,3.08,3.08,0,0,0,.48-1.87v0h0a3.53,3.53,0,0,0-.18-1,4.16,4.16,0,0,1-2.42,1H153.1a4.53,4.53,0,0,0,.16-.92c0-.09,0-.18,0-.27v-1.7h0V91.66h0V80.41h1l.79,0h.13a3.21,3.21,0,0,0,2.84-1.7A3.08,3.08,0,0,0,158.55,76.8Z"/><path class="cls-5" d="M145.36,98.83A3.28,3.28,0,0,0,147.67,96h-2.08a3.1,3.1,0,0,0-2.48,1.2,3.51,3.51,0,0,0-.69,2.31,3,3,0,0,1,2-.6H145Z"/><path class="cls-5" d="M156.88,95.35a4.22,4.22,0,0,1-2.27.66H153a3.88,3.88,0,0,1-.71,1.23,3.47,3.47,0,0,1-.25.29s0,0,0,0l-.14.12a5,5,0,0,1-2.12,1.19l-.12,0h4.2a2.76,2.76,0,0,0,1.78-.55A3.11,3.11,0,0,0,156.88,95.35Z"/><path class="cls-5" d="M148,80a4.5,4.5,0,0,1,.7-1.2,3.45,3.45,0,0,1,.26-.28.08.08,0,0,1,0,0,.8.8,0,0,1,.13-.13,5.22,5.22,0,0,1,2.13-1.19l.22-.07H146.9a3.13,3.13,0,0,0-2.48,1.2,3.56,3.56,0,0,0-.68,2.32,3,3,0,0,1,2-.6Z"/><path class="cls-5" d="M158.19,76.46a4.27,4.27,0,0,1-1.9.63h0l-.13,0A3.33,3.33,0,0,0,153.3,80h1.82a3.08,3.08,0,0,0,1.79-.56A3,3,0,0,0,158.19,76.46Z"/><path d="M46.58,91.22C43,89.73,41.93,89.37,41,88.91c-1.32-.64-2.93-1.23-2.75-3.25.12-1.32,1.36-2.61,3.79-2.61a7.24,7.24,0,0,1,5.79,3l4.22-3.89a12.66,12.66,0,0,0-10-4.74c-7.26,0-9.75,4.74-10,8-.25,3.6,1.6,6.16,5.07,8a55.66,55.66,0,0,0,6.08,2.66c2.18.85,3.73,1.5,3.6,3.54-.15,2.24-2.44,3-4.66,2.86a10.8,10.8,0,0,1-7-3.86l-4.37,4.12A14.92,14.92,0,0,0,42.1,108.3c8.42,0,11-5.43,11-8.61C53.08,95.22,50.68,92.93,46.58,91.22Z"/><rect x="55.79" y="78.3" width="6.39" height="29.18"/><path d="M80.09,91.22A10.65,10.65,0,0,0,80.81,90a11.75,11.75,0,0,0-.08,1.34v16.11H87V78.3H81.17L63.3,107.48h7.12Z"/><path d="M112.62,107.48h6.1V78.3h-6l-7.61,13.91c-.23.39-.41.75-.51.92-.08-.17-.27-.53-.49-.92L96.52,78.3h-6v29.18h6.1v-16c0-1-.11-2-.11-2A6.74,6.74,0,0,0,97,90.55l5.43,9.75h4.32l5.43-9.75a7.75,7.75,0,0,0,.52-1.15,19.5,19.5,0,0,0-.12,2Z"/><path d="M58.65,70.44v4.11c0,2.51-1.24,3.76-3.76,3.76h-6V58.06h6c2.52,0,3.76,1.24,3.76,3.76v3c0,1.73-.6,2.6-1.67,3C58.13,68.18,58.65,69,58.65,70.44Zm-4.8-8.91h-1v4.8h1a.63.63,0,0,0,.72-.72V62.25A.63.63,0,0,0,53.85,61.53Zm-1,13.3h1a.63.63,0,0,0,.72-.72V70.44a.63.63,0,0,0-.72-.72h-1Z"/><path d="M69.61,71v3.73c0,2.52-1.24,3.76-3.76,3.76H63.6c-2.52,0-3.76-1.24-3.76-3.76V70.41h4v3.93a.64.64,0,0,0,.72.73h.38a.64.64,0,0,0,.72-.73V71.91a1.39,1.39,0,0,0-.69-1.3L61.46,68a3.38,3.38,0,0,1-1.62-3.18V61.65c0-2.52,1.24-3.77,3.76-3.77h2.19c2.52,0,3.77,1.25,3.77,3.77v3.7h-4V62a.63.63,0,0,0-.72-.72h-.32a.63.63,0,0,0-.72.72v1.91a1.38,1.38,0,0,0,.69,1.3L68,67.81A3.3,3.3,0,0,1,69.61,71Z"/><path d="M77.13,78.48h-2.6c-2.52,0-3.76-1.24-3.76-3.76V61.65c0-2.52,1.24-3.77,3.76-3.77h2.6c2.52,0,3.76,1.25,3.76,3.77V74.72C80.89,77.24,79.65,78.48,77.13,78.48Zm-1-17.12h-.58a.63.63,0,0,0-.72.72V74.29a.63.63,0,0,0,.72.72h.58a.63.63,0,0,0,.72-.72V62.08A.63.63,0,0,0,76.12,61.36Z"/><path d="M86.33,58.06V74.69h2.92v3.62h-7V58.06Z"/><path d="M100.18,74.72c0,2.52-1.24,3.76-3.76,3.76H94c-2.52,0-3.76-1.24-3.76-3.76V58.06h4V74.29A.64.64,0,0,0,95,75h.43a.64.64,0,0,0,.73-.72V58.06h4Z"/><path d="M103.63,78.31V61.68h-2.46V58.06h9v3.62h-2.46V78.31Z"/><path d="M118.67,58.06v3.62h-3.48v4.54h3.33v3.61h-3.33v4.86h3.53v3.62h-7.57V58.06Z"/><path d="M42.32,67.06a6.22,6.22,0,0,0,.5-.83,7.55,7.55,0,0,0-.06.93V78.31h4.33V58.12h-4L30.71,78.31h4.92Z"/><path class="cls-9" d="M324.41,82.42a1.82,1.82,0,1,0,0-3.63h-7V76.47h7a1.82,1.82,0,1,0,0-3.63H317a3.26,3.26,0,0,0-3.25,3.26v9.37a2.9,2.9,0,0,0,2.9,2.91h7.73a1.82,1.82,0,1,0,0-3.63h-7V82.42Z"/><path class="cls-9" d="M379.2,72.81A7.79,7.79,0,1,0,387,80.6,7.8,7.8,0,0,0,379.2,72.81Zm0,12a4.16,4.16,0,1,1,4.15-4.16A4.16,4.16,0,0,1,379.2,84.76Z"/><path class="cls-9" d="M406.81,73.39A1.83,1.83,0,0,0,405,75.21V86.53a1.82,1.82,0,0,0,3.63,0V75.21A1.82,1.82,0,0,0,406.81,73.39Z"/><path class="cls-9" d="M397.46,73.06h-4.09a3.18,3.18,0,0,0-3.17,3.17v10.3a1.82,1.82,0,0,0,3.63,0V82.67h3.58a4.81,4.81,0,1,0,0-9.61Zm0,6h-3.58V76.7h3.63a1.14,1.14,0,0,1,1.14,1.14A1.19,1.19,0,0,1,397.41,79Z"/><path class="cls-9" d="M418.41,73.37h0a1.83,1.83,0,0,0-1.67,1.09L413,83a1.11,1.11,0,0,0-.09.19l-1.17,2.68a1.82,1.82,0,0,0,.94,2.39,1.72,1.72,0,0,0,.73.16,1.8,1.8,0,0,0,1.66-1.1l.74-1.69h6.13l.72,1.68a1.81,1.81,0,0,0,1.67,1.11,1.78,1.78,0,0,0,.71-.15,1.82,1.82,0,0,0,1-2.38l-4.86-11.41a1.81,1.81,0,0,0-1.7-1.1Zm-1,8.63,1.52-3.49L420.4,82Z"/><path class="cls-9" d="M349.46,72.81a7.79,7.79,0,1,0,7.79,7.79A7.81,7.81,0,0,0,349.46,72.81Z"/><path class="cls-9" d="M368.42,72.84h-8.68a1.82,1.82,0,1,0,0,3.63h2.52V86.53a1.82,1.82,0,0,0,3.63,0V76.47h2.53a1.82,1.82,0,0,0,0-3.63Z"/><path class="cls-9" d="M338.69,84.61h-2.6a4.14,4.14,0,1,1,0-8.28h2.38a1.81,1.81,0,1,0,0-3.62h-2.38a7.76,7.76,0,1,0,0,15.52h2.6a1.81,1.81,0,1,0,0-3.62Z"/><path class="cls-9" d="M335.49,95.15l.8-1.08a.29.29,0,0,0,.07-.19.25.25,0,0,0-.26-.26.32.32,0,0,0-.27.16l-.61.87-.6-.86a.31.31,0,0,0-.27-.17.27.27,0,0,0-.27.26.35.35,0,0,0,.07.2l.8,1.08v.7a.27.27,0,1,0,.54,0Z"/><path class="cls-9" d="M335.22,96.16a.29.29,0,0,1-.3-.3v-.69l-.79-1.08a.33.33,0,0,1-.07-.21.28.28,0,0,1,.29-.28.35.35,0,0,1,.29.17l.58.84.59-.84a.35.35,0,0,1,.29-.18.28.28,0,0,1,.28.29.35.35,0,0,1-.07.21l-.8,1.07v.7A.29.29,0,0,1,335.22,96.16Zm-.87-2.52a.25.25,0,0,0-.25.24.26.26,0,0,0,.07.18l.8,1.09v.71a.25.25,0,1,0,.5,0v-.72h0l.8-1.08a.27.27,0,0,0,.07-.18.23.23,0,0,0-.24-.24.3.3,0,0,0-.25.15l-.63.9-.62-.89A.29.29,0,0,0,334.35,93.64Z"/><path class="cls-9" d="M339.13,94.87a1.32,1.32,0,0,0-2.63,0h0a1.27,1.27,0,0,0,1.31,1.27,1.29,1.29,0,0,0,1.32-1.28Zm-.57,0a.74.74,0,0,1-.74.77.76.76,0,0,1-.75-.78h0a.74.74,0,0,1,.74-.77.75.75,0,0,1,.75.78Z"/><path class="cls-9" d="M337.81,96.18a1.28,1.28,0,0,1-1.33-1.29h0a1.31,1.31,0,0,1,1.34-1.3,1.28,1.28,0,0,1,1.33,1.29h0A1.31,1.31,0,0,1,337.81,96.18Zm0-2.56a1.26,1.26,0,0,0-1.3,1.26h0a1.25,1.25,0,0,0,1.29,1.25,1.27,1.27,0,0,0,1.3-1.26h0A1.25,1.25,0,0,0,337.82,93.62Zm0,2.06a.78.78,0,0,1-.77-.8h0a.75.75,0,0,1,.76-.79.78.78,0,0,1,.77.8h0A.76.76,0,0,1,337.82,95.68Zm0-1.56a.72.72,0,0,0-.72.75h0a.73.73,0,1,0,1.45,0h0A.73.73,0,0,0,337.81,94.12Z"/><path class="cls-9" d="M341.46,93.62a.27.27,0,0,0-.27.27v1.17c0,.39-.2.59-.53.59s-.54-.21-.54-.61V93.89a.27.27,0,0,0-.54,0v1.16a1,1,0,0,0,1.07,1.1A1,1,0,0,0,341.73,95V93.89A.27.27,0,0,0,341.46,93.62Z"/><path class="cls-9" d="M340.65,96.18a1,1,0,0,1-1.1-1.13V93.89a.3.3,0,0,1,.59,0V95c0,.38.19.59.52.59s.51-.2.51-.57V93.89a.3.3,0,0,1,.59,0V95A1,1,0,0,1,340.65,96.18Zm-.8-2.54a.25.25,0,0,0-.25.25v1.16a1,1,0,0,0,1,1.08A1,1,0,0,0,341.71,95V93.89a.25.25,0,1,0-.5,0v1.17c0,.39-.2.62-.55.62s-.56-.24-.56-.64V93.89A.25.25,0,0,0,339.85,93.64Z"/><path class="cls-9" d="M342.83,95.32h.44l.53.68a.32.32,0,0,0,.27.14.26.26,0,0,0,.26-.25.31.31,0,0,0-.09-.21l-.38-.46a.77.77,0,0,0,.49-.76h0a.77.77,0,0,0-.21-.57,1,1,0,0,0-.72-.25h-.86a.27.27,0,0,0-.27.27v2a.27.27,0,1,0,.54,0Zm0-1.19h.55c.26,0,.42.12.42.36h0c0,.21-.15.35-.41.35h-.56Z"/><path class="cls-9" d="M344.07,96.16a.35.35,0,0,1-.29-.15l-.52-.66h-.4v.51a.3.3,0,1,1-.59,0v-2a.29.29,0,0,1,.29-.29h.86a1,1,0,0,1,.74.26.8.8,0,0,1,.22.58h0a.79.79,0,0,1-.48.77l.36.43a.36.36,0,0,1,.09.23A.27.27,0,0,1,344.07,96.16Zm-1.26-.86h.48l.53.67a.3.3,0,0,0,.25.13.22.22,0,0,0,.23-.22.32.32,0,0,0-.08-.2l-.4-.48h0a.73.73,0,0,0,.48-.74h0a.76.76,0,0,0-.2-.55,1,1,0,0,0-.71-.25h-.86a.25.25,0,0,0-.25.25v2a.25.25,0,1,0,.5,0Zm.58-.43h-.58v-.76h.57c.28,0,.45.14.45.38h0C343.83,94.72,343.66,94.87,343.39,94.87Zm-.53-.05h.53c.24,0,.39-.13.39-.33h0c0-.22-.14-.33-.4-.33h-.52Z"/><path class="cls-9" d="M347.71,95.87a.25.25,0,0,0-.25-.25h-1V93.89a.27.27,0,1,0-.54,0v2a.27.27,0,0,0,.27.28h1.28A.25.25,0,0,0,347.71,95.87Z"/><path class="cls-9" d="M347.46,96.14h-1.28a.29.29,0,0,1-.29-.3v-2a.3.3,0,0,1,.59,0V95.6h1a.27.27,0,0,1,0,.54Zm-1.28-2.5a.25.25,0,0,0-.25.25v2a.25.25,0,0,0,.25.25h1.28a.23.23,0,1,0,0-.45h-1V93.89A.25.25,0,0,0,346.18,93.64Z"/><path class="cls-9" d="M350.12,96.14a.26.26,0,0,0,.26-.26.2.2,0,0,0,0-.11l-.86-2a.33.33,0,0,0-.32-.22h0a.33.33,0,0,0-.32.22l-.86,2a.2.2,0,0,0,0,.11.26.26,0,0,0,.25.26.28.28,0,0,0,.25-.17l.17-.41h1.09l.17.39A.28.28,0,0,0,350.12,96.14Zm-1.31-1.06.34-.82.34.82Z"/><path class="cls-9" d="M350.12,96.16a.3.3,0,0,1-.28-.2l-.16-.38h-1.06l-.17.4a.29.29,0,0,1-.27.18.27.27,0,0,1-.27-.28.24.24,0,0,1,0-.12l.86-2a.36.36,0,0,1,.34-.23h0a.36.36,0,0,1,.34.23l.86,2a.27.27,0,0,1,0,.12A.28.28,0,0,1,350.12,96.16Zm-1.53-.62h1.12l.17.4a.24.24,0,0,0,.24.17.23.23,0,0,0,.24-.23.3.3,0,0,0,0-.11l-.86-1.94a.31.31,0,0,0-.3-.21h0a.33.33,0,0,0-.3.21L348,95.77a.61.61,0,0,0,0,.11.23.23,0,0,0,.23.23.24.24,0,0,0,.23-.15Zm.94-.44h-.76l.38-.9Zm-.69,0h.62l-.31-.74Z"/><path class="cls-9" d="M352.59,96.14a.25.25,0,0,0,.25-.25.3.3,0,0,0-.08-.21l-.38-.46a.77.77,0,0,0,.49-.76h0a.77.77,0,0,0-.21-.57,1,1,0,0,0-.72-.25h-.86a.27.27,0,0,0-.27.27v2a.27.27,0,1,0,.54,0v-.54h.44l.53.68A.32.32,0,0,0,352.59,96.14Zm-.27-1.65c0,.21-.15.35-.42.35h-.55v-.71h.54c.27,0,.43.12.43.36Z"/><path class="cls-9" d="M352.59,96.16a.35.35,0,0,1-.29-.15l-.52-.66h-.41v.51a.29.29,0,0,1-.29.3.29.29,0,0,1-.3-.3v-2a.29.29,0,0,1,.3-.29h.86a1,1,0,0,1,.74.26.79.79,0,0,1,.21.58h0a.78.78,0,0,1-.48.77l.36.43a.37.37,0,0,1,.1.23A.28.28,0,0,1,352.59,96.16Zm-1.26-.86h.47l.53.67a.33.33,0,0,0,.26.13.22.22,0,0,0,.23-.22.32.32,0,0,0-.08-.2l-.4-.48h0a.73.73,0,0,0,.48-.74h0a.72.72,0,0,0-.21-.55,1,1,0,0,0-.7-.25h-.86a.25.25,0,0,0-.25.25v2a.25.25,0,1,0,.5,0Zm.57-.43h-.57v-.76h.56c.29,0,.45.14.45.38h0C352.34,94.72,352.18,94.87,351.9,94.87Zm-.53-.05h.53c.25,0,.4-.13.4-.33h0c0-.22-.15-.33-.41-.33h-.52Z"/><path class="cls-9" d="M355.61,95.56V95a.27.27,0,0,0-.27-.27h-.62a.24.24,0,0,0-.24.24.23.23,0,0,0,.24.23h.37v.35a.89.89,0,0,1-.52.15.74.74,0,0,1-.75-.78h0a.75.75,0,0,1,.72-.77.85.85,0,0,1,.54.17.24.24,0,0,0,.16.06.27.27,0,0,0,.27-.27.28.28,0,0,0-.11-.22,1.36,1.36,0,0,0-.85-.24,1.26,1.26,0,0,0-1.29,1.28h0a1.24,1.24,0,0,0,1.3,1.27,1.66,1.66,0,0,0,.86-.25A.38.38,0,0,0,355.61,95.56Z"/><path class="cls-9" d="M354.56,96.18a1.27,1.27,0,0,1-1.33-1.29h0a1.3,1.3,0,0,1,1.32-1.3,1.39,1.39,0,0,1,.86.24.29.29,0,0,1,.12.24.29.29,0,0,1-.29.29.3.3,0,0,1-.18-.06.81.81,0,0,0-.52-.17.73.73,0,0,0-.69.75h0a.72.72,0,0,0,.72.76.86.86,0,0,0,.49-.14v-.32h-.34a.25.25,0,0,1-.26-.25.26.26,0,0,1,.26-.26h.62a.29.29,0,0,1,.3.29v.6a.39.39,0,0,1-.21.37A1.6,1.6,0,0,1,354.56,96.18Zm0-2.56a1.25,1.25,0,0,0-1.27,1.26h0a1.21,1.21,0,0,0,1.28,1.25,1.62,1.62,0,0,0,.85-.25.33.33,0,0,0,.18-.33V95a.25.25,0,0,0-.25-.25h-.62a.21.21,0,0,0-.21.22.21.21,0,0,0,.21.21h.39v.39h0a.9.9,0,0,1-.53.16.77.77,0,0,1-.77-.81h0a.76.76,0,0,1,.74-.79.9.9,0,0,1,.55.17.23.23,0,0,0,.15,0,.25.25,0,0,0,.25-.24.23.23,0,0,0-.11-.2A1.3,1.3,0,0,0,354.55,93.62Z"/><path class="cls-9" d="M357.8,95.63h-1.12v-.52h.94a.24.24,0,0,0,.25-.24.25.25,0,0,0-.25-.24h-.94v-.5h1.1a.25.25,0,1,0,0-.49h-1.37a.27.27,0,0,0-.27.27v1.93a.27.27,0,0,0,.27.28h1.39a.25.25,0,0,0,0-.49Z"/><path class="cls-9" d="M357.8,96.14h-1.39a.29.29,0,0,1-.29-.3V93.91a.28.28,0,0,1,.29-.29h1.37a.27.27,0,1,1,0,.53H356.7v.45h.92a.27.27,0,0,1,.27.27.26.26,0,0,1-.27.26h-.92v.48h1.1a.27.27,0,1,1,0,.53Zm-1.39-2.48a.25.25,0,0,0-.25.25v1.93a.25.25,0,0,0,.25.25h1.39a.21.21,0,0,0,.22-.21.22.22,0,0,0-.22-.23h-1.14v-.56h1a.22.22,0,0,0,0-.44h-1V94.1h1.12a.22.22,0,1,0,0-.44Z"/><path class="cls-9" d="M359.39,96.15c.53,0,.91-.27.91-.77h0c0-.43-.29-.61-.79-.75s-.53-.16-.53-.32h0c0-.12.11-.21.32-.21a1.08,1.08,0,0,1,.52.16.2.2,0,0,0,.13,0,.25.25,0,0,0,.26-.25.26.26,0,0,0-.12-.22,1.46,1.46,0,0,0-.79-.21.77.77,0,0,0-.86.74h0c0,.49.32.63.82.76s.5.17.5.31h0c0,.14-.14.23-.36.23a1,1,0,0,1-.63-.22.25.25,0,0,0-.16,0,.25.25,0,0,0-.15.45A1.56,1.56,0,0,0,359.39,96.15Z"/><path class="cls-9" d="M359.39,96.17a1.57,1.57,0,0,1-.94-.3.27.27,0,0,1-.12-.22.29.29,0,0,1,.28-.28.27.27,0,0,1,.17.06,1,1,0,0,0,.62.22c.21,0,.33-.08.33-.21h0c0-.12-.06-.19-.48-.29s-.84-.26-.84-.78h0a.8.8,0,0,1,.89-.77,1.44,1.44,0,0,1,.8.23.24.24,0,0,1,.13.23.27.27,0,0,1-.28.27.28.28,0,0,1-.15,0,1,1,0,0,0-.5-.16c-.18,0-.3.07-.3.19h0c0,.14.09.19.52.3s.8.31.8.77h0C360.32,95.87,360,96.17,359.39,96.17Zm-.78-.75a.23.23,0,0,0-.23.23.26.26,0,0,0,.09.19,1.65,1.65,0,0,0,.92.29c.54,0,.88-.29.88-.75h0c0-.44-.29-.6-.76-.72s-.55-.17-.55-.35h0c0-.14.13-.24.34-.24a1.12,1.12,0,0,1,.53.17.19.19,0,0,0,.12,0,.23.23,0,0,0,.24-.23.26.26,0,0,0-.11-.2,1.47,1.47,0,0,0-.78-.21.75.75,0,0,0-.84.72h0c0,.45.26.59.8.73s.52.18.52.34h0c0,.15-.15.25-.38.25a1.08,1.08,0,0,1-.65-.22A.24.24,0,0,0,358.61,95.42Z"/><path class="cls-9" d="M360.77,94.14h.53v1.72a.27.27,0,1,0,.54,0V94.14h.52a.25.25,0,0,0,0-.5h-1.59a.25.25,0,0,0,0,.5Z"/><path class="cls-9" d="M361.57,96.16a.29.29,0,0,1-.3-.3V94.17h-.5a.28.28,0,0,1-.27-.28.27.27,0,0,1,.27-.27h1.59a.28.28,0,0,1,.28.27.29.29,0,0,1-.28.28h-.5v1.69A.29.29,0,0,1,361.57,96.16Zm-.8-2.5a.24.24,0,0,0-.23.23.23.23,0,0,0,.23.23h.55v1.74a.25.25,0,1,0,.5,0V94.12h.54a.23.23,0,0,0,.23-.23.23.23,0,0,0-.23-.23Z"/><path class="cls-9" d="M365.73,95.63h-1.12v-.52h.95a.24.24,0,0,0,.24-.24.24.24,0,0,0-.24-.24h-.95v-.5h1.11a.25.25,0,0,0,0-.49h-1.38a.27.27,0,0,0-.27.27v1.93a.27.27,0,0,0,.27.28h1.39a.25.25,0,1,0,0-.49Z"/><path class="cls-9" d="M365.73,96.14h-1.39a.29.29,0,0,1-.29-.3V93.91a.29.29,0,0,1,.29-.29h1.38a.27.27,0,0,1,0,.53h-1.08v.45h.92a.27.27,0,0,1,.26.27.26.26,0,0,1-.26.26h-.92v.48h1.09a.27.27,0,1,1,0,.53Zm-1.39-2.48a.24.24,0,0,0-.24.25v1.93a.24.24,0,0,0,.24.25h1.39a.21.21,0,0,0,.22-.21.22.22,0,0,0-.22-.23h-1.14v-.56h1a.22.22,0,0,0,0-.44h-1V94.1h1.13a.22.22,0,0,0,0-.44Z"/><path class="cls-9" d="M368.48,95.85a.27.27,0,0,0,.09-.2.25.25,0,0,0-.25-.25.28.28,0,0,0-.16.06.78.78,0,0,1-.54.2.74.74,0,0,1-.72-.78h0a.74.74,0,0,1,.72-.77.81.81,0,0,1,.51.18.27.27,0,0,0,.16,0,.27.27,0,0,0,.27-.26.26.26,0,0,0-.11-.22,1.32,1.32,0,0,0-.83-.25,1.25,1.25,0,0,0-1.29,1.28h0a1.31,1.31,0,0,0,2.15,1Z"/><path class="cls-9" d="M367.6,96.18a1.27,1.27,0,0,1-1.29-1.29h0a1.28,1.28,0,0,1,1.31-1.3,1.35,1.35,0,0,1,.84.25.3.3,0,0,1,.12.24.29.29,0,0,1-.29.28.43.43,0,0,1-.18,0,.78.78,0,0,0-.49-.18.71.71,0,0,0-.7.75h0a.71.71,0,0,0,.7.75.75.75,0,0,0,.52-.19.3.3,0,0,1,.18-.06.28.28,0,0,1,.28.27.28.28,0,0,1-.1.21A1.27,1.27,0,0,1,367.6,96.18Zm0-2.56a1.23,1.23,0,0,0-1.26,1.26h0a1.22,1.22,0,0,0,1.24,1.25,1.24,1.24,0,0,0,.87-.31h0a.25.25,0,0,0,.08-.18.23.23,0,0,0-.23-.23.22.22,0,0,0-.15.06.83.83,0,0,1-.55.2.76.76,0,0,1-.74-.8h0a.75.75,0,0,1,.74-.79.86.86,0,0,1,.52.18.3.3,0,0,0,.15,0,.24.24,0,0,0,.24-.24.25.25,0,0,0-.09-.2A1.31,1.31,0,0,0,367.62,93.62Z"/><path class="cls-9" d="M370.18,96.16a1.28,1.28,0,0,0,1.32-1.28h0a1.32,1.32,0,0,0-2.63,0h0A1.27,1.27,0,0,0,370.18,96.16Zm-.74-1.29a.75.75,0,1,1,1.49,0h0a.74.74,0,0,1-.74.77.76.76,0,0,1-.75-.78Z"/><path class="cls-9" d="M370.18,96.18a1.28,1.28,0,0,1-1.33-1.29h0a1.31,1.31,0,0,1,1.34-1.3,1.29,1.29,0,0,1,1.34,1.29h0A1.31,1.31,0,0,1,370.18,96.18Zm0-2.56a1.26,1.26,0,0,0-1.29,1.26h0a1.24,1.24,0,0,0,1.28,1.25,1.27,1.27,0,0,0,1.3-1.26h0A1.24,1.24,0,0,0,370.19,93.62Zm0,2.06a.78.78,0,0,1-.77-.8h0a.76.76,0,0,1,.76-.79.78.78,0,0,1,.78.8h0A.76.76,0,0,1,370.19,95.68Zm0-1.56a.72.72,0,0,0-.72.75h0a.73.73,0,0,0,.73.75.72.72,0,0,0,.72-.74h0A.73.73,0,0,0,370.18,94.12Z"/><path class="cls-9" d="M373,95a.26.26,0,0,0-.26-.26h-.61a.26.26,0,0,0,0,.52h.61A.26.26,0,0,0,373,95Z"/><path class="cls-9" d="M372.72,95.3h-.61a.29.29,0,0,1-.29-.28.28.28,0,0,1,.29-.28h.61A.27.27,0,0,1,373,95,.28.28,0,0,1,372.72,95.3Zm-.61-.52a.24.24,0,0,0-.24.24.23.23,0,0,0,.24.23h.61A.23.23,0,0,0,373,95a.24.24,0,0,0-.24-.24Z"/><path class="cls-9" d="M374.44,93.64h-.74a.27.27,0,0,0-.27.27v2a.28.28,0,1,0,.55,0v-.49h.41c.56,0,1-.29,1-.87h0A.85.85,0,0,0,374.44,93.64Zm.4.87a.38.38,0,0,1-.43.38H374v-.76h.42c.27,0,.44.13.44.38Z"/><path class="cls-9" d="M373.7,96.16a.29.29,0,0,1-.29-.3v-2a.29.29,0,0,1,.29-.29h.74a.87.87,0,0,1,1,.88h0a.9.9,0,0,1-1,.9H374v.46A.29.29,0,0,1,373.7,96.16Zm0-2.5a.24.24,0,0,0-.24.25v2a.24.24,0,0,0,.24.25.25.25,0,0,0,.25-.25v-.51h.44a.86.86,0,0,0,1-.85h0a.83.83,0,0,0-.93-.84Zm.71,1.25H374v-.8h.45c.29,0,.46.15.46.4h0A.4.4,0,0,1,374.41,94.91Zm-.41,0h.41a.37.37,0,0,0,.41-.36h0c0-.23-.16-.35-.42-.35H374Z"/><path class="cls-9" d="M377.3,96a.35.35,0,0,0,.27.14.26.26,0,0,0,.26-.25.27.27,0,0,0-.09-.21l-.38-.46a.77.77,0,0,0,.5-.76h0a.77.77,0,0,0-.21-.57,1,1,0,0,0-.72-.25h-.86a.28.28,0,0,0-.28.27v2a.28.28,0,0,0,.28.28.27.27,0,0,0,.27-.28v-.54h.43Zm-1-1.87h.54c.27,0,.43.12.43.36h0c0,.21-.15.35-.42.35h-.55Z"/><path class="cls-9" d="M377.57,96.16a.35.35,0,0,1-.28-.15l-.53-.66h-.4v.51a.3.3,0,1,1-.59,0v-2a.29.29,0,0,1,.3-.29h.86a1,1,0,0,1,.73.26.76.76,0,0,1,.22.58h0a.78.78,0,0,1-.48.77l.36.43a.36.36,0,0,1,.09.23A.27.27,0,0,1,377.57,96.16Zm-1.25-.86h.47l.53.67a.3.3,0,0,0,.25.13.23.23,0,0,0,.24-.22.32.32,0,0,0-.08-.2l-.4-.48h0a.74.74,0,0,0,.48-.74h0a.72.72,0,0,0-.21-.55,1,1,0,0,0-.7-.25h-.86a.25.25,0,0,0-.25.25v2a.25.25,0,1,0,.5,0Zm.57-.43h-.57v-.76h.56c.29,0,.45.14.45.38h0C377.33,94.72,377.16,94.87,376.89,94.87Zm-.53-.05h.53c.24,0,.4-.13.4-.33h0c0-.22-.15-.33-.41-.33h-.52Z"/><path class="cls-9" d="M380.87,94.88h0a1.26,1.26,0,0,0-1.31-1.27,1.28,1.28,0,0,0-1.32,1.28h0a1.32,1.32,0,0,0,2.63,0Zm-.57,0a.74.74,0,0,1-.74.77.76.76,0,0,1-.75-.78h0a.75.75,0,1,1,1.49,0Z"/><path class="cls-9" d="M379.55,96.18a1.28,1.28,0,0,1-1.33-1.29h0a1.31,1.31,0,0,1,1.34-1.3,1.29,1.29,0,0,1,1.34,1.29h0A1.31,1.31,0,0,1,379.55,96.18Zm0-2.56a1.26,1.26,0,0,0-1.29,1.26h0a1.24,1.24,0,0,0,1.28,1.25,1.27,1.27,0,0,0,1.3-1.26h0A1.24,1.24,0,0,0,379.56,93.62Zm0,2.06a.78.78,0,0,1-.77-.8h0a.76.76,0,0,1,.76-.79.78.78,0,0,1,.78.8h0A.76.76,0,0,1,379.56,95.68Zm0-1.56a.72.72,0,0,0-.72.75h0a.73.73,0,0,0,.73.75.72.72,0,0,0,.72-.74h0A.73.73,0,0,0,379.55,94.12Z"/><path class="cls-9" d="M381.63,96.12h.69a1.25,1.25,0,0,0,1.32-1.24h0a1.23,1.23,0,0,0-1.32-1.23h-.69a.27.27,0,0,0-.27.27v1.93A.27.27,0,0,0,381.63,96.12Zm.27-2h.42a.71.71,0,0,1,.75.75h0a.7.7,0,0,1-.75.73h-.42Z"/><path class="cls-9" d="M382.32,96.14h-.69a.29.29,0,0,1-.29-.3V93.91a.29.29,0,0,1,.29-.29h.69a1.25,1.25,0,0,1,1.34,1.25h0A1.26,1.26,0,0,1,382.32,96.14Zm-.69-2.48a.25.25,0,0,0-.25.25v1.93a.25.25,0,0,0,.25.25h.69a1.22,1.22,0,0,0,1.3-1.21h0a1.22,1.22,0,0,0-1.3-1.21Zm.69,2h-.44V94.11h.44a.73.73,0,0,1,.77.77h0A.73.73,0,0,1,382.32,95.65Zm-.39-.05h.39a.68.68,0,0,0,.73-.71h0a.69.69,0,0,0-.73-.72h-.39Z"/><path class="cls-9" d="M386.24,95V93.89a.27.27,0,0,0-.54,0v1.17c0,.39-.2.59-.54.59s-.53-.21-.53-.61V93.89a.27.27,0,0,0-.54,0v1.16a1,1,0,0,0,1.07,1.1A1,1,0,0,0,386.24,95Z"/><path class="cls-9" d="M385.16,96.18a1,1,0,0,1-1.1-1.13V93.89a.3.3,0,0,1,.59,0V95c0,.38.19.59.51.59s.52-.2.52-.57V93.89a.3.3,0,0,1,.59,0V95A1,1,0,0,1,385.16,96.18Zm-.8-2.54a.25.25,0,0,0-.25.25v1.16a1,1,0,0,0,1.05,1.08A1,1,0,0,0,386.22,95V93.89a.25.25,0,1,0-.5,0v1.17c0,.39-.2.62-.56.62s-.55-.24-.55-.64V93.89A.25.25,0,0,0,384.36,93.64Z"/><path class="cls-9" d="M388,96.16a1.27,1.27,0,0,0,.88-.31.27.27,0,0,0,.09-.2.25.25,0,0,0-.25-.25.32.32,0,0,0-.17.06.74.74,0,0,1-1.25-.58h0a.74.74,0,0,1,.72-.77.77.77,0,0,1,.5.18.34.34,0,0,0,.16,0,.27.27,0,0,0,.27-.26.29.29,0,0,0-.1-.22,1.34,1.34,0,0,0-.83-.25,1.25,1.25,0,0,0-1.29,1.28h0A1.25,1.25,0,0,0,388,96.16Z"/><path class="cls-9" d="M388,96.18a1.26,1.26,0,0,1-1.29-1.29h0a1.28,1.28,0,0,1,1.31-1.3,1.35,1.35,0,0,1,.84.25.3.3,0,0,1,.12.24.29.29,0,0,1-.3.28.38.38,0,0,1-.17,0,.8.8,0,0,0-.49-.18.71.71,0,0,0-.7.75h0a.71.71,0,0,0,.7.75.75.75,0,0,0,.52-.19.28.28,0,0,1,.18-.06.27.27,0,0,1,.27.27.25.25,0,0,1-.1.21A1.25,1.25,0,0,1,388,96.18Zm0-2.56a1.24,1.24,0,0,0-1.27,1.26h0A1.23,1.23,0,0,0,388,96.14a1.21,1.21,0,0,0,.86-.31.22.22,0,0,0,.09-.18.24.24,0,0,0-.23-.23.2.2,0,0,0-.15.06.83.83,0,0,1-.55.2.75.75,0,0,1-.74-.8h0a.74.74,0,0,1,.74-.79.89.89,0,0,1,.52.18.26.26,0,0,0,.14,0,.25.25,0,0,0,.25-.24.23.23,0,0,0-.1-.2A1.26,1.26,0,0,0,388,93.62Z"/><path class="cls-9" d="M389.46,94.14H390v1.72a.27.27,0,1,0,.54,0V94.14h.52a.25.25,0,0,0,0-.5h-1.59a.25.25,0,0,0,0,.5Z"/><path class="cls-9" d="M390.26,96.16a.29.29,0,0,1-.3-.3V94.17h-.5a.28.28,0,0,1-.27-.28.27.27,0,0,1,.27-.27h1.59a.28.28,0,0,1,.28.27.29.29,0,0,1-.28.28h-.5v1.69A.29.29,0,0,1,390.26,96.16Zm-.8-2.5a.24.24,0,0,0-.23.23.23.23,0,0,0,.23.23H390v1.74a.25.25,0,1,0,.5,0V94.12h.54a.23.23,0,0,0,.23-.23.23.23,0,0,0-.23-.23Z"/><path class="cls-9" d="M393.77,94.63c-.43-.11-.54-.16-.54-.32h0c0-.12.11-.21.32-.21a1.08,1.08,0,0,1,.52.16.23.23,0,0,0,.14,0,.25.25,0,0,0,.25-.25.26.26,0,0,0-.12-.22,1.42,1.42,0,0,0-.78-.21.77.77,0,0,0-.87.74h0c0,.49.32.63.82.76s.5.17.5.31h0c0,.14-.13.23-.36.23a1,1,0,0,1-.63-.22.21.21,0,0,0-.15,0,.25.25,0,0,0-.26.25.25.25,0,0,0,.1.2,1.61,1.61,0,0,0,.93.3c.54,0,.91-.27.91-.77h0C394.55,95,394.27,94.77,393.77,94.63Z"/><path class="cls-9" d="M393.64,96.17a1.59,1.59,0,0,1-.94-.3.27.27,0,0,1-.11-.22.28.28,0,0,1,.28-.28.25.25,0,0,1,.16.06,1,1,0,0,0,.62.22c.21,0,.34-.08.34-.21h0c0-.12-.07-.19-.48-.29s-.84-.26-.84-.78h0a.8.8,0,0,1,.89-.77,1.47,1.47,0,0,1,.8.23.24.24,0,0,1,.13.23.28.28,0,0,1-.28.27.28.28,0,0,1-.15,0,1,1,0,0,0-.51-.16c-.18,0-.29.07-.29.19h0c0,.14.08.19.51.3h0c.48.13.81.31.81.77h0C394.58,95.87,394.22,96.17,393.64,96.17Zm-.77-.75a.23.23,0,0,0-.24.23.24.24,0,0,0,.1.19,1.64,1.64,0,0,0,.91.29c.55,0,.89-.29.89-.75h0c0-.44-.29-.6-.77-.72h0c-.43-.11-.55-.17-.55-.35h0c0-.14.13-.24.34-.24a1.06,1.06,0,0,1,.53.17.22.22,0,0,0,.13,0,.23.23,0,0,0,.23-.23.24.24,0,0,0-.11-.2,1.41,1.41,0,0,0-.77-.21.74.74,0,0,0-.84.72h0c0,.45.25.59.8.73s.51.18.51.34h0c0,.15-.14.25-.38.25a1.08,1.08,0,0,1-.64-.22A.27.27,0,0,0,392.87,95.42Z"/><path class="cls-9" d="M396.09,95.86V94.14h.53a.25.25,0,0,0,0-.5H395a.25.25,0,0,0,0,.5h.52v1.72a.27.27,0,1,0,.54,0Z"/><path class="cls-9" d="M395.82,96.16a.29.29,0,0,1-.29-.3V94.17H395a.29.29,0,0,1-.28-.28.28.28,0,0,1,.28-.27h1.59a.27.27,0,0,1,.27.27.28.28,0,0,1-.27.28h-.5v1.69A.29.29,0,0,1,395.82,96.16Zm-.79-2.5a.23.23,0,0,0-.23.23.23.23,0,0,0,.23.23h.54v1.74a.25.25,0,1,0,.5,0V94.12h.55a.23.23,0,0,0,.23-.23.24.24,0,0,0-.23-.23Z"/><path class="cls-9" d="M398.36,96.16a1.28,1.28,0,0,0,1.32-1.28h0a1.32,1.32,0,0,0-2.63,0h0A1.27,1.27,0,0,0,398.36,96.16Zm-.74-1.29a.74.74,0,0,1,.74-.77.75.75,0,0,1,.75.78h0a.74.74,0,0,1-.74.77.76.76,0,0,1-.75-.78Z"/><path class="cls-9" d="M398.36,96.18A1.28,1.28,0,0,1,397,94.89h0a1.31,1.31,0,0,1,1.34-1.3,1.28,1.28,0,0,1,1.33,1.29h0A1.31,1.31,0,0,1,398.36,96.18Zm0-2.56a1.26,1.26,0,0,0-1.3,1.26h0a1.25,1.25,0,0,0,1.29,1.25,1.27,1.27,0,0,0,1.3-1.26h0A1.25,1.25,0,0,0,398.37,93.62Zm0,2.06a.78.78,0,0,1-.77-.8h0a.76.76,0,0,1,.76-.79.77.77,0,0,1,.77.8h0A.75.75,0,0,1,398.37,95.68Zm0-1.56a.72.72,0,0,0-.72.75h0a.73.73,0,1,0,1.45,0h0A.73.73,0,0,0,398.36,94.12Z"/><path class="cls-9" d="M400.44,96.14a.27.27,0,0,0,.27-.28v-.54h.44l.53.68a.32.32,0,0,0,.27.14.25.25,0,0,0,.25-.25.27.27,0,0,0-.09-.21l-.37-.46a.77.77,0,0,0,.49-.76h0a.77.77,0,0,0-.21-.57,1,1,0,0,0-.72-.25h-.86a.27.27,0,0,0-.27.27v2A.27.27,0,0,0,400.44,96.14Zm.27-2h.54c.27,0,.43.12.43.36h0c0,.21-.15.35-.42.35h-.55Z"/><path class="cls-9" d="M402,96.16a.35.35,0,0,1-.29-.15l-.52-.66h-.41v.51a.3.3,0,1,1-.59,0v-2a.29.29,0,0,1,.3-.29h.86a1,1,0,0,1,.74.26.79.79,0,0,1,.21.58h0a.78.78,0,0,1-.48.77l.36.43a.37.37,0,0,1,.1.23A.28.28,0,0,1,402,96.16Zm-1.26-.86h.47l.53.67a.3.3,0,0,0,.26.13.22.22,0,0,0,.23-.22.32.32,0,0,0-.08-.2l-.4-.48h0a.73.73,0,0,0,.48-.74h0a.72.72,0,0,0-.21-.55,1,1,0,0,0-.7-.25h-.86a.25.25,0,0,0-.25.25v2a.25.25,0,1,0,.5,0Zm.57-.43h-.57v-.76h.56c.29,0,.45.14.45.38h0C401.7,94.72,401.53,94.87,401.26,94.87Zm-.53-.05h.53c.25,0,.4-.13.4-.33h0c0-.22-.15-.33-.41-.33h-.52Z"/><path class="cls-9" d="M403,96.12h1.39a.25.25,0,0,0,0-.49h-1.12v-.52h.94a.24.24,0,0,0,.24-.24.24.24,0,0,0-.24-.24h-.94v-.5h1.1a.25.25,0,0,0,0-.49H403a.27.27,0,0,0-.28.27v1.93A.27.27,0,0,0,403,96.12Z"/><path class="cls-9" d="M404.39,96.14H403a.29.29,0,0,1-.3-.3V93.91a.29.29,0,0,1,.3-.29h1.37a.27.27,0,1,1,0,.53h-1.08v.45h.92a.27.27,0,0,1,.27.27.26.26,0,0,1-.27.26h-.92v.48h1.1a.27.27,0,0,1,0,.53ZM403,93.66a.25.25,0,0,0-.25.25v1.93a.25.25,0,0,0,.25.25h1.39a.21.21,0,0,0,.22-.21.22.22,0,0,0-.22-.23h-1.15v-.56h1a.22.22,0,1,0,0-.44h-1V94.1h1.13a.22.22,0,0,0,0-.44Z"/><path class="cls-9" d="M405.6,95.94v0c0-.24-.11-.39-.31-.39a.27.27,0,0,0-.29.29h0a.32.32,0,0,0,.24.29.31.31,0,0,1-.27.33c-.06,0-.11,0-.11.12s0,.12.14.12a.6.6,0,0,0,.39-.17A.75.75,0,0,0,405.6,95.94Z"/><path class="cls-9" d="M405,96.71c-.12,0-.16-.07-.16-.14a.15.15,0,0,1,.12-.14.3.3,0,0,0,.26-.3.33.33,0,0,1-.25-.3h0a.3.3,0,0,1,.32-.31c.21,0,.34.16.34.41v0a.81.81,0,0,1-.22.59A.61.61,0,0,1,405,96.71Zm.29-1.16a.26.26,0,0,0-.27.27h0a.29.29,0,0,0,.23.26h0a.36.36,0,0,1-.29.36.1.1,0,0,0-.09.1.1.1,0,0,0,.11.1.58.58,0,0,0,.38-.17.77.77,0,0,0,.2-.56v0C405.58,95.69,405.47,95.55,405.29,95.55Z"/><path class="cls-9" d="M331.76,97.89h-1.38a.27.27,0,0,0-.28.27v2a.28.28,0,0,0,.55,0V99.4h1a.25.25,0,1,0,0-.49h-1v-.53h1.11a.25.25,0,1,0,0-.49Z"/><path class="cls-9" d="M330.38,100.4a.29.29,0,0,1-.3-.29v-2a.29.29,0,0,1,.3-.3h1.38a.27.27,0,1,1,0,.54h-1.09v.48h.93a.28.28,0,0,1,0,.55h-.93v.68A.29.29,0,0,1,330.38,100.4Zm0-2.49a.25.25,0,0,0-.25.25v2a.25.25,0,1,0,.5,0v-.73h1a.23.23,0,1,0,0-.45h-1v-.57h1.13a.23.23,0,1,0,0-.45Z"/><path class="cls-9" d="M333.63,97.84a1.28,1.28,0,0,0-1.31,1.28h0a1.26,1.26,0,0,0,1.31,1.27A1.28,1.28,0,0,0,335,99.12h0A1.27,1.27,0,0,0,333.63,97.84Zm.75,1.29a.75.75,0,0,1-.75.77.76.76,0,0,1-.75-.78h0a.75.75,0,1,1,1.5,0Z"/><path class="cls-9" d="M333.63,100.43a1.29,1.29,0,0,1-1.34-1.3h0a1.34,1.34,0,0,1,2.68,0h0A1.31,1.31,0,0,1,333.63,100.43Zm0-2.56a1.26,1.26,0,0,0-1.29,1.25h0a1.24,1.24,0,0,0,1.29,1.25,1.26,1.26,0,0,0,1.29-1.26h0A1.24,1.24,0,0,0,333.63,97.87Zm0,2a.78.78,0,0,1-.77-.8h0a.77.77,0,0,1,.77-.8.78.78,0,0,1,.77.8h0A.76.76,0,0,1,333.63,99.92Zm0-1.55a.72.72,0,0,0-.72.75h0a.73.73,0,0,0,.72.76.72.72,0,0,0,.72-.75h0A.72.72,0,0,0,333.63,98.37Z"/><path class="cls-9" d="M336.56,97.89h-.86a.27.27,0,0,0-.27.27v2a.28.28,0,0,0,.55,0v-.54h.43l.53.67a.33.33,0,0,0,.27.14.26.26,0,0,0,.26-.25.36.36,0,0,0-.09-.21l-.38-.46a.75.75,0,0,0,.5-.75h0a.75.75,0,0,0-.22-.56A.94.94,0,0,0,336.56,97.89Zm.38.85c0,.21-.15.35-.41.35H336v-.71h.54c.26,0,.42.12.42.35Z"/><path class="cls-9" d="M337.21,100.4a.33.33,0,0,1-.29-.15l-.52-.66H336v.52a.3.3,0,0,1-.59,0v-2a.29.29,0,0,1,.29-.3h.86a1,1,0,0,1,.74.26.8.8,0,0,1,.22.58h0a.78.78,0,0,1-.48.76l.36.44a.32.32,0,0,1,.09.22A.27.27,0,0,1,337.21,100.4ZM336,99.55h.48l.53.68a.3.3,0,0,0,.25.13.23.23,0,0,0,.23-.23.25.25,0,0,0-.08-.19l-.4-.49h0a.73.73,0,0,0,.48-.73h0a.79.79,0,0,0-.2-.55,1,1,0,0,0-.71-.24h-.86a.25.25,0,0,0-.25.25v2a.25.25,0,1,0,.5,0Zm.58-.44H336v-.76h.57c.28,0,.45.14.45.38h0C337,99,336.8,99.11,336.53,99.11Zm-.53,0h.53c.24,0,.39-.12.39-.32h0c0-.21-.14-.33-.4-.33H336Z"/><path class="cls-9" d="M340.44,98.06a.34.34,0,0,0-.32-.21h0a.34.34,0,0,0-.32.21l-.86,2a.27.27,0,0,0,0,.12.25.25,0,0,0,.25.25.26.26,0,0,0,.25-.17l.18-.4h1.08l.17.38a.27.27,0,0,0,.26.19.26.26,0,0,0,.26-.26.23.23,0,0,0,0-.11Zm-.68,1.26.34-.81.34.81Z"/><path class="cls-9" d="M341.07,100.4a.3.3,0,0,1-.28-.2l-.16-.37h-1.06l-.17.39a.28.28,0,0,1-.27.18.27.27,0,0,1-.27-.27.28.28,0,0,1,0-.13l.86-2a.38.38,0,0,1,.34-.23h0a.35.35,0,0,1,.34.23h0l.86,2a.3.3,0,0,1,0,.12A.27.27,0,0,1,341.07,100.4Zm-1.53-.62h1.12l.17.41a.25.25,0,0,0,.24.17.24.24,0,0,0,.24-.24.22.22,0,0,0,0-.1l-.86-2a.31.31,0,0,0-.3-.2h0a.3.3,0,0,0-.29.2l-.87,2a.35.35,0,0,0,0,.11.23.23,0,0,0,.23.23.25.25,0,0,0,.23-.16Zm.94-.43h-.76l.38-.9Zm-.69,0h.62l-.31-.73Z"/><path class="cls-9" d="M344.46,99.07a.58.58,0,0,0,.33-.54h0a.61.61,0,0,0-.17-.43.91.91,0,0,0-.65-.21h-.88a.27.27,0,0,0-.27.27v1.93a.27.27,0,0,0,.27.27H344c.56,0,.92-.23.92-.68h0A.59.59,0,0,0,344.46,99.07Zm-1.11-.71h.54c.23,0,.36.09.36.26h0c0,.19-.16.27-.4.27h-.5Zm1,1.25c0,.19-.14.27-.38.27h-.65v-.54H344c.28,0,.4.1.4.27Z"/><path class="cls-9" d="M344,100.38h-.91a.29.29,0,0,1-.29-.29V98.16a.29.29,0,0,1,.29-.3H344a.9.9,0,0,1,.66.23.59.59,0,0,1,.18.44h0a.58.58,0,0,1-.3.53.62.62,0,0,1,.44.61h0C345,100.13,344.6,100.38,344,100.38Zm-.91-2.47a.25.25,0,0,0-.25.25v1.93a.25.25,0,0,0,.25.25H344c.57,0,.9-.24.9-.66h0a.57.57,0,0,0-.45-.58l0,0,0,0a.56.56,0,0,0,.31-.52h0a.54.54,0,0,0-.16-.41.87.87,0,0,0-.63-.21Zm.91,2h-.67v-.59H344c.35,0,.43.15.43.29h0C344.41,99.8,344.26,99.91,344,99.91Zm-.63,0H344c.24,0,.36-.08.36-.25h0c0-.17-.13-.25-.38-.25h-.61Zm.48-1h-.52v-.57h.56c.24,0,.38.1.38.28h0C344.27,98.75,344.2,98.91,343.85,98.91Zm-.48,0h.48c.25,0,.37-.08.37-.24h0c0-.2-.21-.23-.33-.23h-.52Z"/><path class="cls-9" d="M347,99.88h-1.12v-.52h.94a.25.25,0,0,0,0-.49h-.94v-.5H347a.24.24,0,1,0,0-.48h-1.37a.27.27,0,0,0-.28.27v1.93a.27.27,0,0,0,.28.27H347a.24.24,0,0,0,0-.48Z"/><path class="cls-9" d="M347,100.38h-1.39a.29.29,0,0,1-.3-.29V98.16a.29.29,0,0,1,.3-.3H347a.27.27,0,1,1,0,.53h-1.08v.46h.92a.27.27,0,1,1,0,.53h-.92v.47H347a.27.27,0,0,1,0,.53Zm-1.39-2.47a.25.25,0,0,0-.25.25v1.93a.25.25,0,0,0,.25.25H347a.22.22,0,0,0,0-.44h-1.15v-.57h1a.21.21,0,0,0,.22-.21.22.22,0,0,0-.22-.23h-1v-.54H347a.22.22,0,1,0,0-.44Z"/><path class="cls-9" d="M349.39,97.89H347.8a.25.25,0,0,0-.25.25.25.25,0,0,0,.25.25h.52v1.72a.27.27,0,0,0,.27.27.28.28,0,0,0,.28-.27V98.39h.52a.25.25,0,0,0,.25-.25A.25.25,0,0,0,349.39,97.89Z"/><path class="cls-9" d="M348.59,100.4a.29.29,0,0,1-.29-.29v-1.7h-.5a.28.28,0,0,1-.28-.27.29.29,0,0,1,.28-.28h1.59a.28.28,0,0,1,.27.28.27.27,0,0,1-.27.27h-.5v1.7A.29.29,0,0,1,348.59,100.4Zm-.79-2.49a.23.23,0,1,0,0,.45h.54v1.75a.25.25,0,1,0,.5,0V98.36h.55a.23.23,0,1,0,0-.45Z"/><path class="cls-9" d="M351.68,97.89h-1.59a.25.25,0,0,0-.25.25.25.25,0,0,0,.25.25h.52v1.72a.28.28,0,0,0,.55,0V98.39h.52a.25.25,0,0,0,.25-.25A.25.25,0,0,0,351.68,97.89Z"/><path class="cls-9" d="M350.89,100.4a.29.29,0,0,1-.3-.29v-1.7h-.5a.27.27,0,0,1-.27-.27.28.28,0,0,1,.27-.28h1.59a.28.28,0,0,1,.27.28.27.27,0,0,1-.27.27h-.5v1.7A.29.29,0,0,1,350.89,100.4Zm-.8-2.49a.23.23,0,1,0,0,.45h.55v1.75a.25.25,0,1,0,.49,0V98.36h.55a.23.23,0,1,0,0-.45Z"/><path class="cls-9" d="M354,99.88h-1.12v-.52h.94a.25.25,0,1,0,0-.49h-.94v-.5H354a.24.24,0,1,0,0-.48H352.6a.27.27,0,0,0-.27.27v1.93a.27.27,0,0,0,.27.27H354a.24.24,0,1,0,0-.48Z"/><path class="cls-9" d="M354,100.38H352.6a.29.29,0,0,1-.29-.29V98.16a.29.29,0,0,1,.29-.3H354a.27.27,0,1,1,0,.53h-1.08v.46h.92a.27.27,0,1,1,0,.53h-.92v.47H354a.27.27,0,1,1,0,.53Zm-1.39-2.47a.25.25,0,0,0-.25.25v1.93a.25.25,0,0,0,.25.25H354a.22.22,0,0,0,0-.44h-1.14v-.57h1a.21.21,0,0,0,.22-.21.22.22,0,0,0-.22-.23h-1v-.54H354a.22.22,0,0,0,0-.44Z"/><path class="cls-9" d="M355.83,97.89H355a.27.27,0,0,0-.27.27v2a.27.27,0,0,0,.54,0v-.54h.44l.53.67a.32.32,0,0,0,.27.14.25.25,0,0,0,.25-.25.34.34,0,0,0-.08-.21l-.38-.46a.74.74,0,0,0,.49-.75h0a.75.75,0,0,0-.21-.56A1,1,0,0,0,355.83,97.89Zm.38.85c0,.21-.15.35-.42.35h-.55v-.71h.54c.27,0,.43.12.43.35Z"/><path class="cls-9" d="M356.48,100.4a.33.33,0,0,1-.29-.15l-.52-.66h-.4v.52a.3.3,0,0,1-.59,0v-2a.29.29,0,0,1,.29-.3h.86a1,1,0,0,1,.74.26.8.8,0,0,1,.22.58h0a.78.78,0,0,1-.48.76l.35.44a.32.32,0,0,1,.1.22A.27.27,0,0,1,356.48,100.4Zm-1.26-.85h.48l.53.68a.3.3,0,0,0,.25.13.23.23,0,0,0,.23-.23.29.29,0,0,0-.08-.19l-.4-.49h0a.73.73,0,0,0,.48-.73h0a.75.75,0,0,0-.21-.55.94.94,0,0,0-.7-.24H355a.25.25,0,0,0-.25.25v2a.25.25,0,1,0,.5,0Zm.57-.44h-.57v-.76h.56c.29,0,.45.14.45.38h0C356.23,99,356.07,99.11,355.79,99.11Zm-.52,0h.52c.25,0,.4-.12.4-.32h0c0-.21-.15-.33-.41-.33h-.51Z"/><path class="cls-9" d="M360.11,97.86a.31.31,0,0,0-.26.16l-.61.88-.6-.87a.33.33,0,0,0-.27-.17.27.27,0,0,0-.27.27.32.32,0,0,0,.07.19l.79,1.09v.7a.28.28,0,0,0,.55,0V99.4l.8-1.08a.4.4,0,0,0,.07-.19A.26.26,0,0,0,360.11,97.86Z"/><path class="cls-9" d="M359.24,100.4a.29.29,0,0,1-.3-.29v-.7l-.79-1.08a.32.32,0,0,1-.08-.2.3.3,0,0,1,.3-.29.36.36,0,0,1,.29.18l.58.84.59-.85a.32.32,0,0,1,.28-.17.28.28,0,0,1,.29.29.35.35,0,0,1-.07.2l-.8,1.07v.71A.29.29,0,0,1,359.24,100.4Zm-.87-2.51a.24.24,0,0,0-.25.24.32.32,0,0,0,.06.18L359,99.4v.71a.25.25,0,1,0,.5,0v-.72h0l.8-1.08a.34.34,0,0,0,.07-.17.24.24,0,0,0-.25-.25.29.29,0,0,0-.24.16l-.63.9-.62-.9A.28.28,0,0,0,358.37,97.89Z"/><path class="cls-9" d="M361.84,97.84a1.28,1.28,0,0,0-1.32,1.28h0a1.32,1.32,0,0,0,2.63,0h0A1.27,1.27,0,0,0,361.84,97.84Zm.74,1.29a.75.75,0,1,1-1.49,0h0a.73.73,0,0,1,.74-.77.75.75,0,0,1,.75.77Z"/><path class="cls-9" d="M361.83,100.43a1.29,1.29,0,0,1-1.34-1.3h0a1.31,1.31,0,0,1,1.35-1.3,1.29,1.29,0,0,1,1.33,1.3h0A1.31,1.31,0,0,1,361.83,100.43Zm0-2.56a1.26,1.26,0,0,0-1.3,1.25h0a1.24,1.24,0,0,0,1.29,1.25,1.26,1.26,0,0,0,1.29-1.26h0A1.23,1.23,0,0,0,361.84,97.87Zm0,2a.78.78,0,0,1-.78-.8h0a.77.77,0,0,1,.77-.8.78.78,0,0,1,.77.8h0A.76.76,0,0,1,361.84,99.92Zm0-1.55a.72.72,0,0,0-.72.75h0a.73.73,0,0,0,.73.76.72.72,0,0,0,.72-.75h0A.73.73,0,0,0,361.83,98.37Z"/><path class="cls-9" d="M365.48,97.86a.27.27,0,0,0-.27.28V99.3c0,.4-.2.6-.54.6s-.53-.21-.53-.61V98.14a.28.28,0,1,0-.55,0V99.3a1,1,0,0,0,1.08,1.1,1,1,0,0,0,1.08-1.12V98.14A.27.27,0,0,0,365.48,97.86Z"/><path class="cls-9" d="M364.67,100.42a1,1,0,0,1-1.1-1.12V98.14a.3.3,0,1,1,.59,0v1.15c0,.38.18.58.51.58s.51-.2.51-.57V98.14a.3.3,0,1,1,.59,0v1.14A1,1,0,0,1,364.67,100.42Zm-.8-2.53a.25.25,0,0,0-.25.25V99.3a1,1,0,0,0,1.05,1.08,1,1,0,0,0,1.06-1.1V98.14a.25.25,0,1,0-.5,0V99.3c0,.4-.2.62-.56.62s-.55-.23-.55-.63V98.14A.25.25,0,0,0,363.87,97.89Z"/><path class="cls-9" d="M368.76,98.06a.34.34,0,0,0-.32-.21h0a.34.34,0,0,0-.32.21l-.86,2a.27.27,0,0,0,0,.12.25.25,0,0,0,.25.25.26.26,0,0,0,.25-.17l.17-.4H369l.17.38a.27.27,0,0,0,.26.19.26.26,0,0,0,.26-.26.23.23,0,0,0,0-.11Zm-.68,1.26.34-.81.34.81Z"/><path class="cls-9" d="M369.39,100.4a.3.3,0,0,1-.28-.2l-.16-.37h-1.06l-.17.39a.28.28,0,0,1-.27.18.27.27,0,0,1-.27-.27.28.28,0,0,1,0-.13l.86-2a.38.38,0,0,1,.34-.23h0a.38.38,0,0,1,.34.23h0l.86,2a.3.3,0,0,1,0,.12A.27.27,0,0,1,369.39,100.4Zm-1.53-.62H369l.17.41a.25.25,0,0,0,.24.17.24.24,0,0,0,.24-.24.22.22,0,0,0,0-.1l-.86-2h0a.31.31,0,0,0-.3-.2h0a.32.32,0,0,0-.3.2l-.86,2a.35.35,0,0,0,0,.11.23.23,0,0,0,.23.23.25.25,0,0,0,.23-.16Zm.94-.43H368l.38-.9Zm-.69,0h.62l-.31-.73Z"/><path class="cls-9" d="M372,97.86a.27.27,0,0,0-.27.27v1.28L370.69,98a.34.34,0,0,0-.28-.16h-.06a.27.27,0,0,0-.27.27v2a.27.27,0,0,0,.54,0V98.79l1.08,1.43a.36.36,0,0,0,.29.15h0a.27.27,0,0,0,.27-.27v-2A.27.27,0,0,0,372,97.86Z"/><path class="cls-9" d="M370.35,100.4a.29.29,0,0,1-.29-.29v-2a.29.29,0,0,1,.29-.29h.06a.36.36,0,0,1,.3.17l1,1.32V98.13a.29.29,0,1,1,.58,0v2a.29.29,0,0,1-.29.3h0a.34.34,0,0,1-.3-.17l-1.05-1.38v1.26A.29.29,0,0,1,370.35,100.4Zm0-2.51a.25.25,0,0,0-.25.25v2a.25.25,0,1,0,.49,0V98.72l1.13,1.48a.32.32,0,0,0,.27.15h0a.24.24,0,0,0,.24-.25v-2a.25.25,0,0,0-.49,0v1.35L370.67,98a.31.31,0,0,0-.26-.15Z"/><path class="cls-9" d="M373.84,97.89h-.69a.27.27,0,0,0-.28.27v1.93a.27.27,0,0,0,.28.27h.69a1.23,1.23,0,0,0,1.31-1.24h0A1.23,1.23,0,0,0,373.84,97.89Zm.74,1.24a.7.7,0,0,1-.74.74h-.42V98.38h.42a.7.7,0,0,1,.74.74Z"/><path class="cls-9" d="M373.84,100.38h-.69a.29.29,0,0,1-.3-.29V98.16a.29.29,0,0,1,.3-.3h.69a1.26,1.26,0,0,1,1.34,1.26h0A1.26,1.26,0,0,1,373.84,100.38Zm-.69-2.47a.25.25,0,0,0-.25.25v1.93a.25.25,0,0,0,.25.25h.69a1.21,1.21,0,0,0,1.29-1.22h0a1.21,1.21,0,0,0-1.29-1.21Zm.69,2h-.45V98.35h.45a.74.74,0,0,1,.77.77h0A.72.72,0,0,1,373.84,99.89Zm-.4,0h.4a.68.68,0,0,0,.72-.72h0a.68.68,0,0,0-.72-.72h-.4Z"/><path class="cls-9" d="M378.09,98.06a.34.34,0,0,0-.31-.21h0a.35.35,0,0,0-.32.21l-.86,2a.27.27,0,0,0,0,.12.25.25,0,0,0,.25.25.26.26,0,0,0,.25-.17l.18-.4h1.08l.17.38a.27.27,0,0,0,.26.19.26.26,0,0,0,.26-.26.23.23,0,0,0,0-.11Zm-.68,1.26.34-.81.34.81Z"/><path class="cls-9" d="M378.72,100.4a.31.31,0,0,1-.28-.2l-.16-.37h-1.06l-.17.39a.28.28,0,0,1-.27.18.27.27,0,0,1-.27-.27.28.28,0,0,1,0-.13l.86-2a.38.38,0,0,1,.34-.23h0a.37.37,0,0,1,.33.23h0l.86,2a.3.3,0,0,1,0,.12A.27.27,0,0,1,378.72,100.4Zm-1.53-.62h1.12l.17.41a.25.25,0,0,0,.24.17.24.24,0,0,0,.24-.24.22.22,0,0,0,0-.1l-.86-2a.31.31,0,0,0-.29-.2h0a.3.3,0,0,0-.29.2l-.87,2a.35.35,0,0,0,0,.11.23.23,0,0,0,.23.23.25.25,0,0,0,.23-.16Zm.94-.43h-.76l.38-.9Zm-.69,0h.62l-.31-.73Z"/><path class="cls-9" d="M382.11,99.07a.58.58,0,0,0,.33-.54h0a.61.61,0,0,0-.17-.43.91.91,0,0,0-.65-.21h-.88a.27.27,0,0,0-.27.27v1.93a.27.27,0,0,0,.27.27h.91c.56,0,.92-.23.92-.68h0A.59.59,0,0,0,382.11,99.07ZM381,98.36h.54c.23,0,.36.09.36.26h0c0,.19-.16.27-.4.27H381Zm1,1.25c0,.19-.14.27-.38.27H381v-.54h.63c.28,0,.4.1.4.27Z"/><path class="cls-9" d="M381.65,100.38h-.91a.29.29,0,0,1-.29-.29V98.16a.29.29,0,0,1,.29-.3h.88a.88.88,0,0,1,.66.23.59.59,0,0,1,.18.44h0a.58.58,0,0,1-.3.53.62.62,0,0,1,.44.61h0C382.6,100.13,382.25,100.38,381.65,100.38Zm-.91-2.47a.25.25,0,0,0-.25.25v1.93a.25.25,0,0,0,.25.25h.91c.57,0,.9-.24.9-.66h0a.57.57,0,0,0-.45-.58l0,0,0,0a.56.56,0,0,0,.31-.52h0a.54.54,0,0,0-.16-.41.87.87,0,0,0-.63-.21Zm.91,2H381v-.59h.65c.35,0,.43.15.43.29h0C382.06,99.8,381.91,99.91,381.65,99.91Zm-.63,0h.63c.24,0,.36-.08.36-.25h0c0-.17-.13-.25-.38-.25H381Zm.48-1H381v-.57h.56c.24,0,.38.1.38.28h0C381.92,98.75,381.85,98.91,381.5,98.91Zm-.48,0h.48c.25,0,.37-.08.37-.24h0c0-.2-.21-.23-.33-.23H381Z"/><path class="cls-9" d="M384.69,99.88h-1.12v-.52h.94a.25.25,0,0,0,0-.49h-.94v-.5h1.1a.24.24,0,1,0,0-.48H383.3a.28.28,0,0,0-.28.27v1.93a.28.28,0,0,0,.28.27h1.39a.24.24,0,1,0,0-.48Z"/><path class="cls-9" d="M384.69,100.38H383.3a.29.29,0,0,1-.3-.29V98.16a.29.29,0,0,1,.3-.3h1.37a.27.27,0,1,1,0,.53h-1.08v.46h.92a.27.27,0,1,1,0,.53h-.92v.47h1.1a.27.27,0,0,1,0,.53Zm-1.39-2.47a.25.25,0,0,0-.25.25v1.93a.25.25,0,0,0,.25.25h1.39a.22.22,0,1,0,0-.44h-1.15v-.57h1a.21.21,0,0,0,.22-.21.22.22,0,0,0-.22-.23h-1v-.54h1.13a.22.22,0,0,0,0-.44Z"/><path class="cls-9" d="M387,97.89h-1.59a.25.25,0,0,0-.25.25.25.25,0,0,0,.25.25H386v1.72a.28.28,0,0,0,.55,0V98.39H387a.25.25,0,0,0,.25-.25A.25.25,0,0,0,387,97.89Z"/><path class="cls-9" d="M386.24,100.4a.29.29,0,0,1-.29-.29v-1.7h-.5a.28.28,0,0,1-.28-.27.29.29,0,0,1,.28-.28H387a.28.28,0,0,1,.27.28.27.27,0,0,1-.27.27h-.5v1.7A.29.29,0,0,1,386.24,100.4Zm-.79-2.49a.23.23,0,1,0,0,.45H386v1.75a.25.25,0,1,0,.5,0V98.36H387a.23.23,0,1,0,0-.45Z"/><path class="cls-9" d="M389.33,97.89h-1.59a.25.25,0,0,0-.25.25.25.25,0,0,0,.25.25h.52v1.72a.28.28,0,0,0,.55,0V98.39h.52a.25.25,0,0,0,.25-.25A.25.25,0,0,0,389.33,97.89Z"/><path class="cls-9" d="M388.54,100.4a.29.29,0,0,1-.3-.29v-1.7h-.5a.27.27,0,0,1-.27-.27.28.28,0,0,1,.27-.28h1.59a.29.29,0,0,1,.28.28.28.28,0,0,1-.28.27h-.5v1.7A.29.29,0,0,1,388.54,100.4Zm-.8-2.49a.23.23,0,1,0,0,.45h.55v1.75a.25.25,0,0,0,.25.25.24.24,0,0,0,.24-.25V98.36h.55a.23.23,0,1,0,0-.45Z"/><path class="cls-9" d="M391.64,99.88h-1.12v-.52h.94a.25.25,0,1,0,0-.49h-.94v-.5h1.1a.24.24,0,1,0,0-.48h-1.37a.27.27,0,0,0-.27.27v1.93a.27.27,0,0,0,.27.27h1.39a.24.24,0,1,0,0-.48Z"/><path class="cls-9" d="M391.64,100.38h-1.39a.29.29,0,0,1-.29-.29V98.16a.29.29,0,0,1,.29-.3h1.37a.27.27,0,1,1,0,.53h-1.08v.46h.92a.27.27,0,1,1,0,.53h-.92v.47h1.1a.27.27,0,1,1,0,.53Zm-1.39-2.47a.25.25,0,0,0-.25.25v1.93a.25.25,0,0,0,.25.25h1.39a.22.22,0,1,0,0-.44H390.5v-.57h1a.21.21,0,0,0,.22-.21.22.22,0,0,0-.22-.23h-1v-.54h1.12a.22.22,0,0,0,0-.44Z"/><path class="cls-9" d="M393.48,97.89h-.86a.27.27,0,0,0-.27.27v2a.27.27,0,1,0,.54,0v-.54h.44l.53.67a.32.32,0,0,0,.27.14.26.26,0,0,0,.26-.25.36.36,0,0,0-.09-.21l-.38-.46a.74.74,0,0,0,.49-.75h0a.75.75,0,0,0-.21-.56A1,1,0,0,0,393.48,97.89Zm.38.85c0,.21-.15.35-.41.35h-.56v-.71h.54c.27,0,.43.12.43.35Z"/><path class="cls-9" d="M394.13,100.4a.33.33,0,0,1-.29-.15l-.52-.66h-.4v.52a.3.3,0,0,1-.59,0v-2a.29.29,0,0,1,.29-.3h.86a1,1,0,0,1,.74.26.8.8,0,0,1,.22.58h0a.78.78,0,0,1-.48.76l.35.44a.32.32,0,0,1,.1.22A.27.27,0,0,1,394.13,100.4Zm-1.26-.85h.48l.53.68a.3.3,0,0,0,.25.13.23.23,0,0,0,.23-.23.29.29,0,0,0-.08-.19l-.4-.49h0a.73.73,0,0,0,.48-.73h0a.79.79,0,0,0-.2-.55,1,1,0,0,0-.71-.24h-.86a.25.25,0,0,0-.25.25v2a.25.25,0,1,0,.5,0Zm.58-.44h-.58v-.76h.56c.29,0,.46.14.46.38h0C393.89,99,393.72,99.11,393.45,99.11Zm-.53,0h.53c.24,0,.39-.12.39-.32h0c0-.21-.14-.33-.41-.33h-.51Z"/><path class="cls-9" d="M399.16,97.86a.28.28,0,0,0-.26.2l-.49,1.52-.49-1.51a.29.29,0,0,0-.28-.21h0a.29.29,0,0,0-.28.21l-.49,1.51-.49-1.52a.29.29,0,0,0-.27-.2.28.28,0,0,0-.28.27.36.36,0,0,0,0,.1l.7,2a.3.3,0,0,0,.28.22h0a.29.29,0,0,0,.28-.22l.49-1.42.49,1.42a.29.29,0,0,0,.28.22h.06a.31.31,0,0,0,.28-.22l.69-2a.36.36,0,0,0,0-.1A.27.27,0,0,0,399.16,97.86Z"/><path class="cls-9" d="M398.44,100.42h-.06a.3.3,0,0,1-.3-.24l-.47-1.35-.46,1.35a.32.32,0,0,1-.31.24h0a.34.34,0,0,1-.31-.24l-.69-1.94a.52.52,0,0,1,0-.11.29.29,0,0,1,.3-.29.31.31,0,0,1,.29.21l.47,1.45.47-1.43a.32.32,0,0,1,.3-.24h0a.32.32,0,0,1,.3.24l.47,1.43.47-1.45a.3.3,0,0,1,.28-.21.28.28,0,0,1,.27.4l-.69,1.94A.32.32,0,0,1,398.44,100.42Zm-.83-1.73.51,1.48a.28.28,0,0,0,.26.21h.06a.29.29,0,0,0,.26-.21l.69-2a.37.37,0,0,0,0-.09.24.24,0,0,0-.25-.24.25.25,0,0,0-.24.18l-.51,1.58-.52-1.57a.25.25,0,0,0-.25-.2h0a.27.27,0,0,0-.26.2l-.51,1.57-.52-1.58a.26.26,0,0,0-.5.06.37.37,0,0,0,0,.09l.7,2a.27.27,0,0,0,.26.21h0a.27.27,0,0,0,.26-.21Z"/><path class="cls-9" d="M401,97.84a1.29,1.29,0,0,0-1.32,1.28h0a1.32,1.32,0,0,0,2.63,0h0A1.27,1.27,0,0,0,401,97.84Zm.74,1.29a.74.74,0,0,1-.74.77.75.75,0,0,1-.75-.78h0a.73.73,0,0,1,.74-.77.75.75,0,0,1,.75.77Z"/><path class="cls-9" d="M401,100.43a1.29,1.29,0,0,1-1.33-1.3h0a1.31,1.31,0,0,1,1.34-1.3,1.29,1.29,0,0,1,1.33,1.3h0A1.31,1.31,0,0,1,401,100.43Zm0-2.56a1.26,1.26,0,0,0-1.3,1.25h0a1.25,1.25,0,0,0,1.29,1.25,1.26,1.26,0,0,0,1.3-1.26h0A1.24,1.24,0,0,0,401,97.87Zm0,2a.78.78,0,0,1-.77-.8h0a.76.76,0,0,1,.76-.8.78.78,0,0,1,.78.8h0A.76.76,0,0,1,401,99.92Zm0-1.55a.72.72,0,0,0-.72.75h0a.73.73,0,0,0,.73.76.72.72,0,0,0,.72-.75h0A.72.72,0,0,0,401,98.37Z"/><path class="cls-9" d="M403.92,97.89h-.86a.27.27,0,0,0-.27.27v2a.27.27,0,1,0,.54,0v-.54h.44l.53.67a.32.32,0,0,0,.27.14.25.25,0,0,0,.25-.25.34.34,0,0,0-.08-.21l-.38-.46a.74.74,0,0,0,.49-.75h0a.75.75,0,0,0-.21-.56A1,1,0,0,0,403.92,97.89Zm.38.85c0,.21-.15.35-.42.35h-.55v-.71h.54c.27,0,.43.12.43.35Z"/><path class="cls-9" d="M404.57,100.4a.33.33,0,0,1-.29-.15l-.52-.66h-.4v.52a.3.3,0,0,1-.6,0v-2a.29.29,0,0,1,.3-.3h.86a1,1,0,0,1,.74.26.8.8,0,0,1,.22.58h0a.77.77,0,0,1-.49.76l.36.44a.32.32,0,0,1,.1.22A.28.28,0,0,1,404.57,100.4Zm-1.26-.85h.47l.54.68a.3.3,0,0,0,.25.13.23.23,0,0,0,.23-.23.29.29,0,0,0-.08-.19l-.4-.49h0a.73.73,0,0,0,.48-.73h0a.75.75,0,0,0-.21-.55,1,1,0,0,0-.7-.24h-.86a.25.25,0,0,0-.25.25v2a.25.25,0,1,0,.5,0Zm.57-.44h-.57v-.76h.56c.29,0,.45.14.45.38h0C404.32,99,404.16,99.11,403.88,99.11Zm-.52,0h.52c.25,0,.4-.12.4-.32h0c0-.21-.15-.33-.41-.33h-.51Z"/><path class="cls-9" d="M406.9,99.87h-1V98.14a.27.27,0,1,0-.54,0v2a.27.27,0,0,0,.27.27h1.28a.24.24,0,0,0,.24-.25A.23.23,0,0,0,406.9,99.87Z"/><path class="cls-9" d="M406.9,100.38h-1.28a.29.29,0,0,1-.3-.29v-2a.3.3,0,1,1,.59,0v1.7h1a.27.27,0,0,1,0,.54Zm-1.28-2.49a.25.25,0,0,0-.25.25v2a.25.25,0,0,0,.25.25h1.28a.22.22,0,0,0,.22-.23.22.22,0,0,0-.22-.22h-1V98.14A.25.25,0,0,0,405.62,97.89Z"/><path class="cls-9" d="M408.5,97.89h-.69a.27.27,0,0,0-.28.27v1.93a.27.27,0,0,0,.28.27h.69a1.23,1.23,0,0,0,1.31-1.24h0A1.23,1.23,0,0,0,408.5,97.89Zm.75,1.24a.71.71,0,0,1-.75.74h-.42V98.38h.42a.71.71,0,0,1,.75.74Z"/><path class="cls-9" d="M408.5,100.38h-.69a.29.29,0,0,1-.3-.29V98.16a.29.29,0,0,1,.3-.3h.69a1.26,1.26,0,0,1,1.34,1.26h0A1.26,1.26,0,0,1,408.5,100.38Zm-.69-2.47a.25.25,0,0,0-.25.25v1.93a.25.25,0,0,0,.25.25h.69a1.21,1.21,0,0,0,1.29-1.22h0a1.21,1.21,0,0,0-1.29-1.21Zm.69,2h-.44V98.35h.44a.74.74,0,0,1,.77.77h0A.72.72,0,0,1,408.5,99.89Zm-.4,0h.4a.68.68,0,0,0,.72-.72h0a.68.68,0,0,0-.72-.72h-.4Z"/></g></g></svg>